<?xml version="1.0" standalone="no"?>
<!DOCTYPE svg PUBLIC "-//W3C//DTD SVG 20010904//EN"
 "http://www.w3.org/TR/2001/REC-SVG-20010904/DTD/svg10.dtd">
<svg version="1.0" xmlns="http://www.w3.org/2000/svg"
 width="800.000000pt" height="800.000000pt" viewBox="0 0 800.000000 800.000000"
 preserveAspectRatio="xMidYMid meet">
<metadata>
Created by potrace 1.14, written by Peter Selinger 2001-2017
</metadata>
<g transform="translate(0.000000,800.000000) scale(0.100000,-0.100000)"
fill="#000000" stroke="none">
<path d="M3366 7933 c-1 -1 -48 -3 -104 -4 -64 -2 -102 -7 -102 -13 0 -6 -4
-5 -9 2 -9 15 -20 15 -38 0 -9 -8 -13 -7 -13 3 0 11 -2 11 -8 1 -5 -7 -34 -13
-69 -15 -34 -1 -59 -5 -56 -9 2 -5 -10 -8 -26 -8 -17 0 -31 -5 -31 -11 0 -8
-5 -8 -15 1 -8 7 -15 8 -15 3 0 -5 -14 -10 -32 -11 -18 -2 -40 -10 -49 -18
-11 -10 -19 -12 -24 -5 -4 8 -12 8 -26 1 -10 -6 -19 -8 -19 -4 0 3 -8 0 -17
-7 -15 -12 -16 -12 -8 1 7 13 6 13 -7 2 -9 -7 -29 -15 -45 -17 -15 -1 -27 -7
-26 -13 1 -5 -10 -8 -25 -6 -14 1 -31 -1 -37 -6 -5 -4 -14 -9 -20 -10 -5 -1
-21 -6 -34 -11 -13 -5 -34 -10 -47 -11 -13 -1 -24 -6 -24 -11 0 -5 -7 -7 -15
-3 -8 3 -15 1 -15 -3 0 -5 -7 -12 -16 -15 -10 -4 -13 -2 -8 7 5 7 1 6 -10 -3
-10 -8 -25 -15 -34 -16 -8 -2 -19 -9 -23 -16 -7 -11 -9 -11 -9 0 0 10 -4 9
-16 -2 -8 -9 -20 -14 -25 -11 -5 4 -9 1 -9 -5 0 -6 -4 -8 -10 -5 -5 3 -10 2
-10 -4 0 -6 -7 -8 -15 -5 -8 4 -15 1 -15 -7 0 -7 -3 -9 -7 -6 -3 4 -11 2 -18
-3 -6 -5 -21 -11 -33 -13 -12 -2 -25 -7 -29 -12 -5 -4 -2 -5 6 0 10 6 12 4 7
-4 -4 -7 -13 -10 -19 -8 -7 2 -21 -3 -31 -12 -16 -13 -18 -13 -11 -1 4 8 -3 4
-18 -9 -14 -12 -30 -20 -36 -16 -6 3 -14 0 -17 -9 -3 -8 -12 -12 -20 -9 -8 3
-14 1 -14 -5 0 -5 -14 -12 -31 -16 -17 -3 -28 -10 -25 -15 6 -9 -41 -26 -59
-22 -5 2 -7 -1 -3 -5 10 -9 -22 -33 -44 -34 -10 0 -18 -5 -18 -11 0 -5 -4 -8
-9 -5 -5 3 -12 -1 -15 -10 -3 -8 -10 -13 -15 -9 -6 3 -14 -3 -20 -12 -6 -10
-11 -14 -11 -9 0 5 -12 -1 -27 -15 -21 -19 -24 -20 -14 -4 7 11 2 8 -12 -8
-15 -15 -30 -28 -34 -30 -5 -1 -7 -5 -6 -9 2 -4 -4 -5 -12 -2 -8 4 -15 1 -15
-6 0 -6 -4 -8 -10 -5 -5 3 -10 1 -10 -5 0 -6 -5 -8 -10 -5 -6 4 -9 1 -8 -6 2
-7 -4 -13 -12 -14 -8 -1 -14 -7 -12 -14 1 -7 -2 -10 -8 -6 -5 3 -10 0 -10 -7
0 -9 -3 -9 -10 2 -8 13 -10 13 -10 -2 0 -9 -5 -20 -12 -24 -7 -5 -9 -2 -4 7 4
8 0 5 -9 -6 -9 -11 -21 -19 -26 -17 -5 1 -9 -5 -9 -13 0 -8 -7 -15 -15 -15 -8
0 -23 -9 -32 -20 -10 -11 -23 -20 -31 -20 -7 0 -10 -4 -7 -10 6 -9 -8 -14 -28
-11 -5 1 -6 -3 -3 -8 4 -5 -3 -12 -14 -16 -11 -4 -18 -11 -15 -16 4 -5 0 -9
-8 -9 -8 0 -18 -7 -21 -16 -3 -8 -10 -12 -16 -9 -9 6 -14 -8 -11 -28 1 -5 -3
-6 -9 -2 -5 3 -32 -17 -59 -46 -27 -28 -54 -48 -60 -45 -7 4 -9 1 -5 -8 3 -9
-2 -17 -15 -21 -12 -3 -19 -10 -16 -15 3 -5 -4 -11 -15 -15 -11 -3 -20 -13
-20 -21 0 -8 -4 -13 -9 -10 -5 3 -15 -2 -22 -11 -12 -14 -12 -16 1 -8 8 5 -2
-8 -23 -28 -20 -20 -43 -37 -50 -37 -8 0 -7 -4 3 -10 13 -9 13 -10 0 -11 -8
-1 -19 -1 -23 0 -5 1 -6 -3 -2 -9 3 -5 1 -10 -6 -10 -7 0 -10 -3 -6 -6 7 -7
-24 -44 -34 -39 -4 3 -12 -9 -19 -26 -9 -20 -18 -28 -28 -24 -13 5 -13 3 -1
-12 7 -10 10 -15 5 -11 -12 10 -43 -25 -38 -42 3 -8 2 -12 -3 -8 -9 8 -28 -10
-38 -35 -4 -11 -12 -15 -18 -11 -8 4 -9 3 -5 -5 4 -6 0 -18 -8 -27 -9 -9 -13
-20 -10 -26 5 -7 2 -8 -5 -4 -8 5 -14 0 -18 -14 -4 -16 -8 -18 -14 -8 -7 10
-9 9 -10 -4 -3 -31 -4 -34 -19 -51 -32 -35 -39 -45 -33 -51 4 -3 1 -6 -5 -6
-7 0 -12 -7 -12 -16 0 -8 -4 -13 -9 -10 -5 3 -12 -1 -15 -10 -4 -10 -2 -13 7
-9 6 4 5 1 -4 -7 -19 -16 -54 -79 -51 -92 2 -5 -4 -6 -12 -3 -9 4 -15 3 -13
-1 5 -18 -28 -82 -39 -78 -8 3 -11 -1 -8 -8 3 -8 1 -17 -5 -21 -6 -3 -11 -15
-11 -26 0 -10 -4 -19 -10 -19 -5 0 -10 -7 -10 -15 0 -8 -5 -15 -11 -15 -5 0
-7 -4 -4 -10 3 -5 2 -10 -4 -10 -5 0 -8 -11 -7 -25 2 -13 -1 -22 -5 -19 -5 3
-9 -2 -9 -10 0 -8 -5 -18 -12 -22 -7 -5 -8 -3 -3 6 5 9 4 11 -4 6 -9 -6 -9
-11 -1 -21 6 -7 7 -15 3 -17 -5 -1 -21 -27 -37 -56 -15 -30 -21 -50 -14 -46
14 9 -10 -26 -27 -38 -6 -5 -5 -8 3 -8 10 0 10 -3 0 -14 -7 -8 -16 -12 -19
-10 -3 2 -4 -8 -1 -23 3 -17 1 -24 -6 -19 -6 3 -9 -1 -8 -11 2 -10 -3 -27 -11
-39 -7 -11 -10 -24 -6 -27 3 -4 1 -7 -6 -7 -7 0 -10 -4 -6 -9 3 -5 1 -12 -5
-16 -5 -3 -10 -11 -10 -16 0 -6 4 -7 10 -4 6 3 7 -1 4 -10 -4 -9 -12 -14 -19
-11 -8 3 -10 -4 -7 -20 2 -13 0 -24 -5 -24 -5 0 -10 -8 -11 -17 -5 -44 -11
-58 -23 -55 -11 3 -11 1 -2 -9 10 -10 10 -16 0 -27 -6 -8 -13 -27 -13 -41 -3
-50 -4 -52 -16 -45 -9 5 -9 2 1 -9 9 -11 10 -17 2 -17 -6 0 -11 -10 -11 -23 0
-13 -6 -29 -12 -36 -11 -11 -10 -12 2 -6 12 7 13 6 4 -6 -6 -8 -12 -22 -13
-31 0 -10 -2 -26 -2 -35 -1 -10 -6 -23 -11 -30 -5 -7 -7 -22 -3 -34 6 -18 4
-21 -10 -15 -14 5 -15 4 -7 -7 9 -10 8 -17 -1 -27 -10 -10 -9 -11 1 -5 12 6
12 3 2 -15 -6 -12 -10 -24 -7 -26 3 -3 1 -22 -4 -42 -5 -20 -11 -45 -14 -54
-2 -10 0 -20 6 -23 5 -4 2 -19 -7 -36 -8 -17 -13 -37 -10 -45 3 -8 0 -14 -7
-14 -8 0 -8 -3 2 -9 11 -7 11 -9 0 -14 -12 -5 -12 -6 0 -6 10 -1 10 -7 -4 -27
-9 -15 -12 -23 -6 -20 7 5 11 -1 11 -14 0 -12 -3 -19 -8 -17 -4 3 -7 -10 -8
-29 0 -21 2 -30 7 -22 5 8 8 6 6 -9 0 -12 -4 -20 -8 -17 -4 2 -7 -96 -7 -219
0 -138 4 -224 11 -228 5 -4 6 -12 1 -20 -12 -20 -14 -40 -2 -33 12 8 6 -29 -7
-38 -6 -5 -5 -8 3 -8 7 0 12 -12 12 -27 0 -32 6 -108 9 -108 2 0 4 -10 7 -23
3 -17 1 -21 -8 -16 -8 5 -8 1 1 -10 18 -21 22 -56 7 -56 -6 0 -5 -4 3 -9 8 -5
14 -26 15 -48 0 -21 4 -40 7 -43 4 -3 9 -23 10 -45 2 -22 9 -43 14 -47 6 -5 4
-8 -5 -8 -11 0 -12 -2 -3 -8 7 -4 14 -24 16 -45 2 -20 7 -40 10 -44 4 -3 7
-17 7 -30 0 -12 6 -23 13 -23 9 0 8 -3 -2 -9 -9 -6 -10 -10 -2 -12 7 -3 13
-19 13 -36 1 -19 5 -30 11 -26 6 4 8 0 4 -9 -3 -9 1 -25 9 -36 11 -16 11 -21
1 -25 -9 -4 -9 -6 1 -6 6 -1 12 -12 12 -26 0 -14 4 -25 9 -25 5 0 8 -13 7 -29
-1 -17 1 -28 4 -26 3 2 13 -10 23 -26 9 -17 12 -27 7 -24 -6 3 -10 1 -10 -4 0
-6 5 -11 10 -11 6 0 10 -5 10 -11 0 -5 -6 -7 -13 -4 -6 4 -5 0 4 -7 9 -7 20
-28 23 -46 4 -17 12 -32 17 -32 6 0 7 -4 4 -10 -3 -5 -1 -10 6 -10 7 0 9 -3 6
-7 -4 -3 -1 -13 6 -21 10 -13 9 -14 -1 -8 -11 7 -11 4 0 -13 7 -12 16 -21 21
-21 4 0 5 -5 2 -11 -4 -5 1 -19 11 -30 9 -11 18 -27 19 -37 3 -24 44 -110 56
-118 6 -3 8 -13 5 -21 -3 -8 -2 -12 2 -9 4 3 14 -4 21 -16 7 -11 8 -18 3 -14
-5 3 -9 -1 -9 -9 0 -8 5 -13 10 -12 10 2 17 -9 42 -66 9 -21 23 -41 31 -44 8
-3 14 -9 14 -15 0 -5 -6 -6 -12 -3 -7 4 -3 -2 10 -13 12 -11 22 -27 22 -36 0
-9 4 -16 9 -16 5 0 14 -14 21 -30 7 -17 22 -37 33 -45 12 -8 17 -20 14 -29 -4
-10 -1 -16 7 -16 8 0 20 -13 28 -30 7 -16 16 -30 20 -30 5 0 8 -7 8 -15 0 -8
5 -15 10 -15 6 0 10 -8 10 -17 0 -15 2 -16 10 -3 8 12 10 11 10 -7 0 -13 4
-23 9 -23 5 0 11 -9 14 -20 3 -11 13 -20 24 -20 15 0 16 -2 3 -10 -13 -8 -12
-10 4 -10 12 0 16 -5 13 -14 -4 -9 2 -17 13 -21 10 -3 26 -22 35 -41 9 -19 23
-38 31 -41 8 -3 11 -10 7 -16 -3 -5 -1 -7 4 -4 6 4 19 -5 29 -20 11 -15 36
-44 56 -64 21 -21 38 -42 38 -48 0 -6 5 -11 12 -11 6 0 34 -24 61 -53 28 -28
54 -51 59 -50 7 3 12 -12 9 -29 0 -5 4 -8 9 -8 6 0 22 -12 35 -26 14 -15 25
-24 25 -20 0 4 6 1 14 -6 8 -7 12 -16 9 -21 -2 -4 3 -7 11 -7 9 0 16 -5 16
-11 0 -5 5 -7 10 -4 5 3 10 -1 10 -9 0 -9 5 -16 11 -16 16 0 39 -26 31 -35 -4
-5 -1 -5 6 -1 7 4 15 1 18 -8 3 -9 12 -16 20 -16 8 0 14 -5 14 -11 0 -5 5 -7
10 -4 6 3 10 -2 10 -12 0 -15 2 -16 10 -3 8 13 10 12 10 -3 0 -10 8 -21 18
-24 9 -4 22 -14 29 -22 7 -9 13 -12 13 -7 0 5 11 -3 25 -18 13 -14 29 -26 35
-26 5 0 19 -9 30 -20 11 -11 20 -17 20 -13 0 3 9 -4 19 -16 14 -16 21 -18 24
-9 3 8 6 6 6 -5 1 -10 5 -15 11 -12 5 3 10 1 10 -4 0 -6 7 -11 15 -11 8 0 15
-4 15 -10 0 -5 7 -10 15 -10 8 0 15 -5 15 -10 0 -6 6 -9 13 -8 6 2 11 -3 9
-10 -1 -6 1 -11 5 -10 13 4 73 -26 73 -36 0 -4 7 -5 16 -2 10 4 13 2 8 -6 -5
-7 0 -9 14 -6 12 3 21 3 20 -1 -3 -26 3 -33 17 -21 13 11 14 10 9 -3 -4 -11 0
-15 12 -13 10 2 26 -6 35 -17 8 -11 27 -21 40 -23 13 -1 28 -3 32 -3 5 -1 6
-5 3 -10 -3 -5 1 -12 10 -15 8 -3 12 -2 9 4 -8 13 68 -31 77 -45 5 -6 8 -5 8
3 0 10 4 9 16 -3 9 -9 22 -14 29 -11 6 2 18 -4 25 -15 11 -14 16 -15 22 -6 6
9 8 9 8 0 0 -7 9 -13 20 -13 11 0 20 -4 20 -8 0 -4 10 -9 22 -9 13 -1 24 -7
26 -13 2 -5 8 -8 13 -4 5 3 9 1 9 -4 0 -5 10 -9 23 -9 36 0 79 -21 71 -35 -5
-9 -2 -9 9 1 16 12 21 9 18 -12 -1 -4 8 -3 19 3 13 7 20 7 20 0 0 -5 9 -10 19
-10 11 0 22 -6 24 -12 4 -9 6 -9 6 -1 1 13 51 -6 51 -21 0 -5 7 -3 15 4 12 10
15 10 15 0 0 -7 8 -10 20 -7 11 3 23 1 26 -5 3 -5 13 -7 21 -4 8 3 11 1 8 -4
-4 -6 7 -10 24 -10 17 0 31 -3 31 -7 0 -5 12 -9 28 -10 40 -4 56 -8 70 -16 7
-5 12 -3 12 5 0 9 3 9 10 -2 5 -8 10 -11 10 -6 0 5 10 1 22 -10 12 -10 18 -13
14 -7 -5 9 0 13 13 13 10 0 21 -4 23 -9 2 -5 28 -11 58 -13 30 -1 58 -7 62
-13 5 -6 8 -5 8 3 0 7 5 10 10 7 6 -4 8 -9 6 -13 -2 -4 22 -7 55 -6 32 0 59
-3 59 -7 0 -9 20 -6 39 5 10 6 12 5 7 -2 -5 -8 0 -12 13 -12 12 0 21 6 21 13
0 8 3 8 9 -2 6 -8 25 -14 48 -14 21 0 44 -5 52 -11 11 -8 13 -8 7 1 -8 14 6
18 18 6 10 -10 56 -11 50 -2 -5 9 17 6 33 -4 6 -4 15 -3 18 3 5 8 11 8 20 0
10 -8 14 -7 18 2 4 10 6 10 6 1 1 -7 6 -13 12 -13 5 0 8 4 5 9 -8 12 27 8 36
-4 5 -6 8 -5 8 4 0 10 3 11 14 2 11 -9 15 -9 19 1 4 10 6 10 6 1 1 -7 6 -13
12 -13 5 0 8 4 5 8 -3 5 1 9 9 9 8 0 15 -5 15 -10 0 -5 8 -3 17 4 14 12 16 12
8 0 -6 -11 -4 -13 7 -8 9 3 21 0 27 -6 9 -9 11 -8 6 3 -4 11 1 16 15 17 11 1
20 -4 20 -10 0 -8 3 -8 8 -2 4 6 25 11 47 12 89 3 121 7 138 15 11 6 17 5 17
-2 0 -6 5 -8 11 -4 7 4 32 9 57 11 25 1 49 8 53 14 4 8 8 7 11 -2 4 -10 8 -11
19 -3 8 6 28 10 44 10 17 -1 36 5 43 14 12 13 13 13 8 -4 -6 -16 -4 -17 10 -6
8 8 34 15 57 18 23 2 44 7 47 11 3 3 15 6 28 5 12 -1 22 2 22 7 0 5 7 6 15 3
9 -4 15 0 15 7 0 11 2 11 8 1 5 -7 16 -10 25 -6 9 3 14 11 11 16 -4 6 4 5 16
-2 13 -7 20 -8 16 -2 -3 6 -2 13 4 17 5 3 10 1 10 -6 0 -7 7 -4 16 7 8 10 13
13 9 7 -7 -15 11 -18 20 -3 4 6 11 8 16 5 5 -4 9 0 9 7 0 9 3 9 10 -2 8 -12
10 -12 10 -1 0 8 3 11 7 8 3 -4 12 1 20 11 8 9 12 12 9 5 -7 -13 39 -12 52 2
4 4 1 5 -7 0 -10 -5 -12 -4 -7 4 4 6 11 9 16 6 4 -3 25 2 45 11 21 8 44 13 53
9 12 -4 12 -3 3 8 -9 12 -7 13 14 9 16 -3 25 0 25 8 0 8 9 11 25 7 18 -3 30 2
40 17 8 11 15 15 15 8 0 -10 4 -9 16 2 8 9 20 14 25 11 5 -4 9 -1 9 6 0 8 4 8
16 -1 12 -11 15 -11 12 1 -2 8 3 13 10 11 6 -1 12 3 12 9 0 5 5 7 10 4 6 -3
10 -1 10 6 0 7 10 9 25 7 14 -3 23 -1 22 6 -1 6 4 10 11 8 7 -1 15 4 18 12 3
8 12 12 20 9 8 -3 14 0 14 7 0 6 4 9 9 5 5 -3 13 0 16 6 4 5 13 8 21 5 8 -3
13 0 11 7 -1 7 4 11 11 9 6 -1 12 3 12 9 0 5 5 7 10 4 6 -3 10 -1 10 5 0 6 5
8 10 5 6 -3 10 -1 10 5 0 7 7 10 15 6 8 -3 19 2 24 12 6 9 11 13 11 9 0 -5 7
-1 16 7 8 9 20 14 25 11 5 -4 9 1 9 9 0 9 5 16 11 16 5 0 7 -6 4 -12 -4 -7 1
-4 9 6 9 11 16 16 16 11 0 -5 6 -1 13 9 7 9 21 19 32 20 11 2 19 9 18 14 -2 7
4 9 14 5 12 -5 14 -3 8 7 -6 10 -4 12 8 7 10 -3 17 -3 17 1 0 4 12 16 27 26
17 13 24 14 19 5 -4 -8 2 -3 13 11 11 14 21 21 21 15 0 -5 5 -2 11 8 5 9 15
17 20 17 6 0 17 7 26 15 8 8 19 12 25 9 6 -4 8 -2 5 3 -7 11 20 28 37 24 5 -1
6 5 3 13 -8 20 4 28 21 13 12 -9 14 -9 9 0 -5 8 1 15 18 19 15 4 22 11 18 18
-4 6 1 5 10 -3 9 -7 15 -17 12 -21 -3 -5 4 -11 15 -15 11 -4 18 -11 15 -16 -4
-5 2 -6 11 -2 14 5 16 3 11 -11 -4 -10 -3 -15 3 -11 6 3 10 1 10 -4 0 -6 7
-11 15 -11 8 0 15 -4 15 -8 0 -15 37 -52 44 -45 3 3 6 -1 6 -10 0 -9 6 -17 14
-17 8 0 18 -9 21 -20 3 -11 11 -20 16 -20 5 0 23 -15 40 -32 17 -18 35 -32 40
-30 5 1 9 -2 9 -8 0 -15 33 -50 48 -50 7 0 10 -5 7 -10 -3 -6 1 -10 10 -10 9
0 14 -3 12 -8 -3 -4 5 -16 16 -27 11 -11 17 -13 12 -5 -4 8 4 2 19 -14 14 -16
23 -33 19 -39 -3 -5 -1 -7 5 -3 6 3 13 2 17 -4 4 -6 11 -7 17 -4 7 4 8 2 4 -4
-4 -7 -2 -12 4 -12 6 0 8 -5 4 -12 -5 -8 -2 -9 9 -5 10 3 17 2 17 -4 0 -10 65
-79 75 -79 9 0 41 -36 48 -53 4 -10 14 -20 24 -24 21 -8 53 -40 53 -53 0 -9
15 -14 33 -11 5 1 6 -3 2 -9 -3 -5 1 -10 10 -10 9 0 14 -3 12 -7 -5 -10 30
-43 37 -35 3 3 6 -6 7 -19 0 -13 3 -18 6 -11 4 10 11 5 24 -15 10 -15 19 -24
19 -20 0 4 6 2 14 -5 8 -7 12 -16 9 -20 -2 -5 3 -8 11 -8 9 0 16 -5 16 -11 0
-5 5 -7 10 -4 6 4 9 2 8 -3 -3 -11 53 -68 65 -64 4 1 7 -2 7 -6 0 -14 36 -52
49 -52 7 0 9 -5 6 -10 -3 -6 4 -10 17 -11 13 0 17 -3 11 -6 -10 -3 -10 -8 1
-19 8 -8 20 -14 26 -14 6 0 8 -4 5 -10 -3 -5 0 -10 8 -10 8 0 18 -7 21 -16 3
-9 11 -12 18 -8 7 4 10 4 6 0 -4 -5 4 -18 18 -31 13 -12 24 -28 24 -34 0 -7 5
-9 10 -6 6 3 10 1 10 -5 0 -6 4 -9 9 -5 5 3 12 -3 15 -13 4 -10 17 -25 31 -32
13 -7 22 -17 19 -22 -3 -4 0 -8 6 -8 6 0 8 -5 4 -13 -5 -7 0 -6 11 3 11 9 16
10 11 3 -4 -8 -1 -13 8 -14 29 -3 34 -4 42 -11 4 -4 13 -3 20 3 8 6 20 9 28 6
10 -4 13 -1 9 9 -3 9 0 14 8 12 8 -2 13 3 11 10 -1 6 3 12 8 12 12 0 49 36 99
97 19 23 38 40 43 37 4 -3 8 0 8 5 0 14 37 51 50 51 5 0 7 6 4 14 -3 9 3 17
15 21 12 3 19 11 16 16 -4 5 -1 9 4 9 15 0 51 37 44 44 -4 3 1 6 11 6 9 0 15
3 13 7 -5 10 30 43 37 35 3 -3 6 0 6 5 0 15 100 119 111 116 4 -2 5 5 2 15 -3
9 -3 14 2 10 9 -8 65 44 58 55 -2 4 3 7 11 7 8 0 18 5 22 12 5 7 3 8 -7 3 -8
-5 12 16 43 47 32 30 58 61 58 67 0 7 5 9 10 6 6 -3 10 -1 10 5 0 6 4 8 10 5
6 -3 7 1 4 9 -3 9 -10 16 -16 16 -5 0 -6 4 -3 10 3 6 -1 7 -9 4 -15 -6 -21 6
-16 31 1 6 -2 7 -5 3 -4 -4 -20 6 -35 22 -15 16 -31 26 -35 22 -5 -4 -5 1 -2
11 4 10 3 16 -2 13 -12 -8 -92 74 -85 86 4 6 2 8 -4 4 -6 -3 -17 0 -25 8 -8 8
-17 12 -21 9 -3 -4 -6 0 -6 8 0 8 -8 23 -17 34 -13 17 -15 17 -9 2 3 -11 2
-16 -4 -12 -6 3 -10 11 -10 17 0 17 -50 59 -62 52 -6 -4 -9 -3 -5 2 3 5 -1 18
-9 29 -8 10 -14 16 -14 12 0 -5 -6 -2 -14 5 -10 9 -11 15 -2 20 11 7 -16 13
-39 8 -5 -1 -7 1 -4 5 8 8 -93 113 -103 108 -5 -2 -8 3 -8 11 0 9 -7 16 -15
16 -13 0 -19 12 -16 32 0 4 -6 5 -14 2 -10 -4 -15 0 -15 11 0 9 -5 13 -10 10
-6 -3 -10 1 -10 9 0 9 -7 16 -15 16 -9 0 -19 10 -24 23 -5 12 -12 22 -17 21
-13 -1 -34 23 -27 30 4 3 -4 6 -16 6 -12 0 -19 4 -16 10 3 5 1 10 -5 10 -15 0
-41 26 -33 34 4 3 -1 6 -10 6 -10 0 -17 6 -17 13 0 6 -14 21 -30 32 -16 11
-30 26 -30 33 0 6 -4 11 -8 10 -11 -4 -82 67 -82 81 0 6 -5 11 -11 11 -5 0 -7
-4 -4 -10 3 -5 1 -10 -4 -10 -10 0 -16 22 -12 43 1 5 -3 6 -8 3 -5 -3 -19 8
-32 24 -13 16 -27 30 -31 30 -12 0 -56 48 -50 54 5 6 -14 10 -31 7 -5 -1 -6 3
-2 9 3 5 1 10 -5 10 -6 0 -8 5 -5 10 4 6 1 9 -7 8 -7 -2 -12 3 -11 9 2 7 0 12
-5 12 -20 -3 -32 2 -29 14 1 6 -6 11 -15 11 -9 -1 -14 4 -12 10 3 7 -6 21 -18
32 l-23 19 19 -25 c11 -14 -1 -4 -27 22 -26 27 -47 52 -47 58 0 5 -6 9 -12 7
-7 -1 -12 4 -11 11 3 11 -9 16 -29 13 -5 0 -8 4 -8 9 0 15 -47 60 -54 53 -3
-4 -6 1 -6 10 0 8 -9 19 -20 22 -11 3 -20 13 -20 21 0 8 -3 14 -7 14 -11 0
-68 50 -57 50 5 0 -2 6 -16 13 -14 8 -24 19 -22 26 1 7 -2 10 -7 6 -6 -3 -15
4 -21 15 -6 11 -15 18 -21 15 -5 -4 -9 -1 -9 4 0 18 -40 52 -52 45 -7 -4 -8
-3 -4 5 4 6 0 14 -8 17 -9 3 -13 10 -10 15 3 5 -2 9 -10 9 -9 0 -16 7 -16 16
0 10 -5 14 -16 10 -8 -3 -12 -2 -9 4 3 6 1 10 -4 10 -6 0 -11 7 -11 15 0 9 -6
12 -17 8 -11 -4 -14 -3 -9 5 4 7 1 12 -8 12 -10 0 -13 6 -9 17 4 11 3 14 -5 9
-7 -4 -12 -2 -12 3 0 6 -7 11 -16 11 -8 0 -13 3 -11 8 6 9 -19 33 -27 25 -3
-4 -6 1 -6 11 0 9 -4 14 -10 11 -5 -3 -10 1 -10 10 0 9 -4 13 -10 10 -5 -3
-10 1 -10 10 0 9 -4 13 -10 10 -5 -3 -10 1 -10 9 0 9 -7 16 -16 16 -8 0 -12 5
-9 10 3 6 -4 10 -16 10 -12 0 -20 3 -17 6 4 3 -15 26 -40 51 -26 25 -46 50
-44 56 2 6 -4 4 -13 -3 -13 -11 -15 -10 -9 6 4 10 4 16 -1 12 -9 -8 -35 15
-35 31 0 26 -33 -2 -44 -37 -4 -12 -12 -22 -17 -22 -6 0 -7 -4 -4 -10 3 -5 1
-10 -5 -10 -7 0 -10 -7 -7 -14 4 -11 1 -13 -10 -9 -13 5 -15 2 -10 -11 4 -10
3 -15 -3 -11 -9 6 -14 -8 -11 -28 1 -5 -3 -6 -9 -2 -5 3 -14 -5 -19 -18 -6
-14 -15 -28 -21 -32 -5 -3 -7 -11 -4 -17 5 -8 1 -9 -10 -5 -10 4 -15 3 -11 -3
3 -6 1 -10 -5 -10 -6 0 -9 -4 -6 -8 3 -5 -4 -15 -15 -22 -10 -8 -19 -20 -19
-28 0 -7 -5 -10 -12 -6 -8 5 -9 2 -5 -10 4 -10 3 -15 -3 -11 -6 3 -14 -5 -20
-19 -11 -29 -22 -35 -14 -8 2 9 -1 7 -7 -6 -7 -12 -16 -22 -21 -22 -5 0 -7 -4
-4 -9 3 -5 -1 -12 -10 -15 -8 -3 -12 -11 -9 -16 4 -6 3 -9 -2 -8 -5 2 -27 -16
-50 -39 -22 -23 -44 -39 -49 -35 -4 4 -4 -1 -1 -11 4 -11 3 -16 -3 -12 -6 3
-10 1 -10 -5 0 -6 -4 -8 -10 -5 -5 3 -10 1 -10 -5 0 -6 -7 -18 -15 -26 -8 -9
-15 -13 -15 -9 0 3 -6 0 -14 -7 -8 -7 -11 -17 -8 -22 3 -5 0 -6 -6 -2 -6 4
-17 -2 -23 -13 -7 -11 -19 -17 -27 -13 -9 3 -13 1 -9 -5 6 -10 -28 -45 -36
-36 -3 2 -10 -5 -17 -16 -6 -12 -15 -19 -20 -16 -5 3 -12 0 -17 -7 -13 -21
-58 -55 -49 -38 5 8 -4 2 -19 -15 -14 -16 -24 -23 -20 -15 4 8 -2 6 -12 -6
-10 -11 -25 -18 -32 -16 -8 3 -11 0 -7 -7 7 -10 -6 -16 -28 -12 -5 1 -6 -5 -3
-14 4 -8 2 -15 -2 -15 -5 0 -12 6 -14 13 -3 7 -6 4 -6 -6 -1 -10 -6 -15 -11
-12 -6 3 -13 -1 -16 -10 -4 -9 -13 -14 -21 -11 -7 3 -16 -1 -19 -9 -4 -8 -15
-15 -25 -15 -10 0 -19 -5 -19 -11 0 -5 -4 -8 -9 -5 -5 3 -12 -1 -15 -10 -4 -9
-9 -14 -13 -11 -3 3 -18 0 -33 -8 -15 -8 -31 -11 -35 -7 -5 4 -5 1 -1 -5 4 -8
1 -13 -9 -13 -10 0 -13 -5 -9 -12 5 -9 2 -9 -9 1 -15 12 -17 11 -17 -2 0 -10
-7 -15 -20 -12 -11 2 -20 0 -20 -6 0 -5 -9 -9 -21 -9 -13 0 -18 -4 -13 -12 5
-8 2 -9 -9 -5 -9 3 -19 2 -22 -4 -4 -5 -11 -7 -16 -4 -5 4 -9 1 -9 -5 0 -7 -8
-9 -22 -5 -16 6 -20 4 -15 -7 4 -11 -2 -14 -24 -13 -16 1 -34 -4 -40 -11 -6
-8 -15 -12 -19 -9 -5 3 -11 1 -15 -5 -4 -6 -11 -8 -16 -5 -5 4 -9 2 -9 -3 0
-6 -9 -8 -20 -5 -11 3 -20 1 -20 -5 0 -6 -11 -9 -25 -7 -14 1 -25 -2 -25 -7 0
-5 -4 -6 -10 -3 -5 3 -10 1 -10 -6 0 -6 -8 -9 -20 -6 -11 3 -20 1 -20 -5 0 -5
-4 -6 -10 -3 -6 3 -16 3 -22 -2 -13 -8 -23 -9 -74 -12 -17 -1 -23 -5 -18 -13
6 -10 4 -10 -8 0 -11 9 -18 10 -23 2 -4 -6 -20 -9 -36 -6 -16 2 -32 -1 -35 -6
-5 -7 -2 -8 6 -3 7 5 11 4 8 -1 -4 -5 -30 -9 -60 -8 -29 0 -56 -5 -60 -10 -5
-7 -8 -5 -8 4 0 13 -1 13 -10 0 -8 -13 -10 -13 -10 -1 0 11 -4 10 -16 -5 -8
-10 -13 -13 -9 -7 8 16 -7 17 -22 2 -8 -8 -13 -8 -17 0 -4 6 -12 11 -17 11 -6
0 -7 -5 -3 -11 5 -8 1 -8 -13 0 -11 6 -23 7 -27 4 -10 -11 -266 -10 -266 1 0
4 -7 3 -15 -4 -12 -10 -15 -10 -15 0 0 10 -3 10 -14 1 -11 -9 -15 -9 -19 1 -4
10 -8 10 -16 -2 -9 -12 -11 -13 -11 -1 0 8 -3 11 -7 8 -3 -4 -13 -1 -21 6 -13
9 -14 9 -8 0 4 -7 2 -13 -3 -13 -6 0 -11 5 -11 10 0 6 -5 10 -11 10 -5 0 -7
-6 -3 -12 6 -10 5 -10 -7 -1 -8 7 -25 10 -37 6 -14 -3 -22 -1 -22 7 0 10 -3
10 -15 0 -12 -10 -15 -10 -15 0 0 8 -3 10 -6 7 -4 -3 -15 -2 -25 4 -14 7 -19
6 -19 -2 0 -8 -4 -8 -15 1 -8 7 -15 9 -15 5 0 -4 -8 -1 -17 6 -15 12 -16 12
-8 -1 6 -12 5 -13 -6 -2 -7 6 -23 12 -34 12 -12 0 -25 3 -28 7 -7 7 -50 15
-80 14 -9 0 -15 5 -11 11 4 6 -3 5 -16 -2 -15 -8 -20 -8 -16 -1 5 7 -3 11 -19
11 -14 0 -24 4 -21 9 3 4 -2 8 -12 8 -49 0 -63 4 -56 14 4 7 1 10 -7 7 -8 -3
-27 1 -43 9 -18 10 -26 11 -21 3 4 -7 -4 -5 -17 4 -14 9 -28 13 -31 9 -4 -3
-7 -1 -7 6 0 7 -4 9 -10 6 -5 -3 -10 -1 -10 5 0 6 -4 8 -10 5 -5 -3 -10 -1
-10 6 0 7 -3 9 -7 6 -3 -4 -13 -1 -21 6 -13 10 -15 9 -8 -3 4 -8 0 -6 -8 4 -9
11 -16 16 -16 12 0 -5 -7 -3 -15 4 -9 7 -18 10 -21 7 -9 -8 -33 16 -27 26 3 5
-4 4 -16 -2 -13 -8 -21 -8 -21 -2 0 14 -56 42 -65 33 -5 -4 -5 -1 -1 6 5 8 0
12 -13 12 -12 0 -30 9 -40 19 -10 10 -28 22 -40 26 -12 3 -21 10 -21 15 0 5
-7 6 -17 3 -10 -4 -14 -2 -9 5 4 6 -3 12 -16 14 -13 2 -22 9 -20 16 1 8 -2 11
-8 7 -5 -3 -10 -1 -10 5 0 6 -4 8 -10 5 -5 -3 -10 -1 -10 5 0 7 -6 10 -12 7
-7 -2 -23 7 -36 20 -12 13 -27 21 -34 17 -6 -4 -9 -3 -6 2 7 11 -17 35 -26 27
-3 -4 -6 0 -6 7 0 7 -3 11 -6 7 -4 -3 -22 10 -40 29 -19 19 -39 32 -44 29 -6
-3 -10 1 -10 9 0 14 -12 20 -32 17 -5 0 -7 2 -7 7 4 24 -2 34 -18 28 -10 -4
-14 -4 -11 0 8 8 -16 34 -32 34 -6 0 -9 4 -6 9 3 5 -1 12 -10 15 -8 3 -12 10
-9 16 3 6 -1 7 -9 4 -11 -4 -19 2 -25 17 -5 13 -10 21 -10 17 -1 -5 -9 0 -19
10 -11 9 -17 20 -15 24 2 5 -6 8 -19 9 -13 0 -17 3 -10 6 10 4 5 11 -15 24
-15 10 -24 19 -19 19 5 0 -6 14 -25 31 -19 18 -28 28 -20 24 10 -6 12 -4 7 4
-5 7 -15 10 -23 7 -8 -3 -12 -2 -9 3 3 5 -1 14 -9 21 -8 7 -15 19 -15 26 0 8
-7 14 -15 14 -8 0 -14 6 -12 13 1 6 -4 11 -10 10 -7 -2 -13 6 -13 17 0 11 -7
20 -15 20 -8 0 -15 9 -15 20 0 11 -7 20 -16 20 -8 0 -13 4 -9 9 3 5 -7 22 -22
37 -16 16 -27 29 -25 31 7 9 0 23 -13 23 -8 0 -14 3 -14 8 5 28 -3 52 -17 52
-8 0 -12 5 -9 10 3 5 1 10 -4 10 -6 0 -11 7 -11 16 0 8 -4 12 -10 9 -6 -4 -7
1 -3 11 5 13 3 15 -7 9 -9 -5 -11 -4 -6 3 4 7 -2 22 -13 34 -12 12 -21 30 -21
40 0 10 -4 18 -10 18 -5 0 -10 9 -10 20 0 10 -8 24 -17 29 -14 8 -15 11 -3 11
12 0 11 3 -2 11 -10 5 -18 21 -18 35 0 17 -4 23 -12 18 -7 -5 -9 -1 -6 12 3
11 -1 25 -9 32 -7 7 -13 22 -13 32 0 11 -5 20 -11 20 -5 0 -8 4 -4 9 3 5 -2
17 -11 25 -11 12 -12 16 -2 16 10 0 10 2 -1 9 -7 5 -11 13 -7 19 3 6 1 14 -7
19 -7 4 -13 17 -13 28 0 12 -6 19 -14 17 -11 -3 -11 0 0 12 7 9 8 16 2 16 -5
0 -13 7 -16 16 -4 10 -2 13 7 8 8 -6 8 -3 -1 9 -8 9 -11 21 -7 27 3 5 1 10 -5
10 -6 0 -8 5 -5 10 3 6 -2 10 -12 10 -13 0 -15 2 -5 9 16 10 12 31 -8 49 -8 8
-9 11 -2 7 6 -3 12 -1 12 4 0 6 -5 11 -11 11 -8 0 -7 6 2 17 8 9 9 14 3 10 -7
-4 -14 2 -17 13 -3 11 -1 23 5 26 5 4 4 13 -5 22 -8 10 -13 25 -12 35 2 9 -1
17 -6 17 -5 0 -9 5 -9 11 0 5 6 7 13 3 9 -6 9 -5 0 7 -7 9 -13 30 -15 47 -1
18 -7 32 -13 32 -5 0 -4 4 4 9 9 6 10 11 2 15 -8 5 -8 13 -1 27 9 15 7 21 -5
26 -13 5 -14 7 -3 14 10 7 10 9 0 9 -9 0 -10 5 -3 18 5 10 6 24 1 32 -4 7 -6
24 -4 37 3 17 1 22 -7 18 -8 -5 -8 -1 1 14 8 16 8 26 1 35 -7 9 -7 16 0 23 8
8 8 13 0 17 -15 10 -14 29 2 20 9 -5 9 -4 0 6 -8 9 -9 19 -2 32 6 11 6 18 0
18 -11 0 -9 19 3 39 6 10 5 12 -2 7 -7 -4 -12 -2 -12 3 0 6 5 11 11 11 6 0 3
7 -5 16 -20 19 -21 31 -2 15 10 -9 13 -6 12 16 -1 16 -5 31 -11 35 -7 5 -6 8
1 8 6 0 10 21 10 50 -1 28 3 50 9 50 5 0 3 5 -5 10 -8 5 -10 10 -3 10 6 0 9 9
5 22 -3 11 -1 19 4 16 5 -4 9 13 10 35 2 88 4 108 12 104 4 -3 8 16 10 41 1
25 8 50 15 54 9 6 9 8 -1 8 -10 0 -10 5 -2 20 6 12 8 29 5 40 -3 10 -1 21 4
25 7 4 8 -1 5 -12 -5 -15 -4 -15 4 -3 6 8 9 17 7 21 -3 3 0 21 6 40 6 19 12
45 15 59 3 13 8 27 12 30 4 3 9 18 11 35 1 16 10 34 19 41 11 8 12 13 3 18 -9
6 -8 12 4 26 9 10 17 27 18 39 1 11 5 21 10 21 4 0 5 5 2 10 -3 6 -1 10 5 10
6 0 8 5 5 10 -3 6 -1 10 4 10 6 0 10 3 10 8 -4 21 2 32 14 26 9 -6 9 -4 -1 8
-10 13 -10 17 3 22 9 3 14 10 10 15 -3 5 0 13 6 16 5 4 8 14 5 22 -3 8 -2 12
2 9 4 -2 15 9 25 25 10 18 12 28 4 24 -6 -4 -3 1 7 9 11 9 16 16 11 16 -4 0
-1 8 8 18 10 10 14 22 10 25 -3 4 -1 7 6 7 7 0 9 5 6 10 -3 6 2 10 12 10 15 0
16 2 3 10 -11 7 -11 10 -2 10 7 0 10 5 7 10 -3 6 1 10 10 10 9 0 13 5 10 10
-3 6 -1 10 5 10 6 0 8 5 5 10 -3 6 1 13 9 16 9 3 13 10 10 15 -3 5 0 9 6 9 7
0 9 7 6 16 -3 8 -2 13 2 10 5 -3 16 8 26 25 9 16 22 29 28 29 5 0 8 7 4 15 -3
8 -1 15 4 15 6 0 10 7 10 16 0 8 4 12 10 9 9 -6 14 8 11 28 -1 5 3 6 9 2 5 -3
15 5 21 19 7 14 16 23 20 20 5 -3 9 2 9 11 0 8 7 18 15 21 8 4 15 13 15 20 0
8 7 17 15 20 8 4 15 13 15 21 0 8 5 11 10 8 6 -3 10 1 10 10 0 12 5 15 16 11
15 -6 15 -4 3 11 -7 10 -10 15 -5 11 9 -8 76 56 76 72 0 6 6 10 13 10 6 0 21
8 32 17 16 13 17 15 3 10 -28 -10 -21 2 8 13 15 6 22 14 18 22 -4 6 -3 8 4 4
6 -3 14 -1 19 7 4 7 21 20 36 30 15 10 25 22 22 27 -4 6 1 7 11 3 14 -5 16 -3
11 11 -4 10 -3 15 3 11 5 -3 23 8 40 25 16 17 30 28 30 25 0 -3 9 4 20 15 12
12 25 18 31 15 5 -4 8 -3 7 2 -2 4 1 9 6 10 5 0 13 8 18 17 5 9 15 16 23 16 7
0 23 12 34 26 12 15 21 22 21 15 0 -6 8 -3 18 7 11 9 17 20 15 24 -1 3 7 4 19
0 14 -3 19 -2 14 6 -4 7 -1 12 8 12 9 0 25 9 35 19 14 14 21 16 25 8 2 -7 5
-4 5 5 1 11 6 15 16 12 8 -4 15 -2 15 3 0 4 9 14 21 21 13 9 18 9 14 2 -5 -8
0 -7 13 1 12 7 18 17 15 23 -3 5 -1 6 5 2 6 -3 13 -2 17 4 4 6 11 8 16 5 5 -4
9 -1 9 5 0 6 4 9 9 5 5 -3 16 2 24 10 9 8 23 15 32 15 9 0 14 4 10 9 -3 6 4 8
15 6 11 -2 20 0 20 6 0 5 3 8 8 8 21 -4 32 2 26 14 -6 9 -4 9 8 -1 12 -10 17
-10 20 -1 2 7 15 14 28 16 13 2 28 9 32 16 4 6 8 8 8 3 0 -5 7 -2 17 5 9 8 18
13 20 12 8 -7 34 -2 30 5 -5 6 14 10 66 12 10 1 21 8 24 16 4 11 8 12 13 4 5
-8 11 -7 23 4 19 19 31 21 21 4 -4 -7 3 -4 16 7 13 11 20 14 16 8 -5 -9 -2
-11 8 -7 9 3 13 11 10 16 -4 6 3 5 15 -1 16 -9 21 -9 21 0 0 6 7 9 15 6 8 -4
17 -2 20 3 3 5 12 7 20 3 8 -3 15 -1 15 5 0 5 14 8 30 6 17 -2 30 1 30 6 0 6
5 10 11 10 5 0 7 -6 3 -12 -6 -10 -4 -10 8 0 13 10 17 10 21 0 4 -9 6 -8 6 3
1 13 10 16 47 14 32 -2 47 1 51 11 4 12 7 12 17 -2 11 -15 14 -15 28 -1 11 12
18 13 27 4 7 -7 11 -7 11 -1 0 6 17 9 38 8 20 -1 43 3 51 10 11 8 13 8 7 -1
-8 -15 0 -15 29 -4 12 5 26 4 34 -3 11 -8 15 -8 18 2 3 6 10 9 16 5 20 -12 57
-12 57 0 0 8 3 8 8 2 4 -6 16 -11 27 -11 11 0 23 5 27 11 5 6 8 5 8 -4 0 -10
3 -11 14 -2 8 7 17 8 20 3 3 -5 39 -9 80 -8 42 1 74 -3 73 -9 -2 -11 34 -13
50 -2 6 4 14 3 18 -3 3 -5 22 -10 41 -10 26 0 33 -3 28 -12 -5 -9 -2 -9 9 1
11 8 17 9 17 2 0 -6 13 -9 30 -7 22 2 30 -1 31 -13 0 -12 2 -12 8 3 6 16 9 17
13 4 4 -8 16 -14 30 -13 12 1 32 -3 43 -8 21 -12 27 -13 63 -15 13 -1 21 -5
19 -9 -3 -5 5 -9 16 -9 53 -3 77 -9 81 -20 3 -7 13 -11 23 -9 10 1 29 -4 41
-12 13 -8 26 -12 29 -9 3 3 12 -1 20 -9 18 -18 37 -20 27 -2 -4 6 2 4 13 -5
11 -10 27 -18 36 -18 9 0 17 -5 17 -11 0 -5 4 -8 9 -4 5 3 16 -1 24 -9 8 -8
17 -12 21 -9 3 4 6 2 6 -4 0 -6 10 -9 23 -6 18 4 19 3 7 -6 -12 -9 -10 -11 13
-11 15 0 27 -4 27 -10 0 -5 6 -7 14 -4 7 3 16 -2 19 -10 4 -9 15 -16 25 -16
11 0 31 -9 46 -21 14 -11 31 -17 37 -13 7 4 9 3 5 -4 -3 -6 3 -13 14 -17 12
-4 17 -11 13 -18 -4 -7 1 -6 10 2 15 12 17 12 11 -4 -5 -12 -4 -16 3 -12 6 4
18 1 26 -7 8 -8 17 -12 21 -9 3 4 6 1 6 -5 0 -7 7 -12 15 -12 9 0 18 -7 21
-15 4 -8 10 -12 15 -9 5 3 9 0 9 -6 0 -6 4 -8 10 -5 6 3 10 -1 10 -10 0 -9 4
-14 9 -10 5 3 21 -6 35 -20 14 -14 29 -25 35 -25 5 0 25 -15 44 -34 20 -19 45
-37 56 -41 12 -3 19 -10 16 -15 -3 -5 13 -19 34 -31 22 -12 39 -25 38 -28 -3
-9 41 -51 53 -51 6 0 10 -4 10 -9 0 -13 58 -70 64 -63 3 3 6 -2 6 -11 0 -9 5
-17 11 -17 5 0 7 -5 3 -12 -5 -8 -2 -9 10 -5 14 5 17 3 12 -8 -3 -8 -1 -15 5
-15 14 0 39 -26 39 -39 0 -6 5 -11 10 -11 6 0 10 -8 10 -17 0 -15 2 -16 10 -3
8 13 10 12 10 -4 0 -10 10 -27 22 -37 11 -11 18 -19 14 -19 -4 0 4 -11 18 -24
15 -13 26 -28 26 -35 0 -6 9 -16 20 -23 11 -7 20 -19 20 -26 0 -7 9 -22 20
-34 11 -12 20 -28 20 -35 0 -8 5 -11 11 -7 7 4 10 1 7 -7 -3 -8 0 -19 6 -26
29 -33 36 -43 36 -53 0 -6 7 -18 15 -27 8 -8 12 -19 9 -25 -4 -7 -2 -8 4 -4
11 6 13 2 12 -19 -1 -3 6 -12 14 -21 8 -8 12 -22 9 -31 -4 -10 -2 -14 4 -10
11 7 33 -33 33 -59 0 -8 5 -12 10 -9 10 6 15 -20 12 -60 -2 -16 0 -17 8 -5 5
8 10 12 11 8 1 -5 3 -12 4 -18 1 -5 3 -15 4 -21 0 -5 5 -8 9 -5 4 2 7 -7 7
-22 -1 -15 8 -38 19 -51 12 -13 14 -20 7 -16 -8 5 -4 -7 9 -25 13 -18 18 -30
10 -25 -9 5 -5 -6 8 -29 12 -20 16 -34 10 -30 -9 6 -9 3 1 -9 7 -9 10 -24 7
-33 -5 -12 -2 -15 10 -10 14 5 15 4 4 -9 -7 -8 -8 -15 -2 -15 14 0 21 -47 8
-60 -8 -8 -7 -10 5 -5 12 5 16 -2 17 -31 1 -21 5 -40 10 -43 4 -3 8 -14 9 -23
0 -10 1 -30 2 -44 1 -17 5 -23 14 -18 8 5 8 2 -2 -9 -13 -16 -8 -22 13 -18 5
1 5 -4 -1 -11 -14 -16 -14 -28 -2 -50 7 -13 6 -18 -3 -18 -8 0 -6 -5 5 -11 13
-8 15 -15 7 -28 -5 -10 -6 -21 -3 -25 3 -3 8 -20 10 -38 2 -17 8 -37 15 -45 9
-11 7 -12 -8 -7 -15 6 -17 4 -7 -6 6 -7 9 -19 6 -28 -5 -11 -3 -13 8 -7 12 8
12 6 0 -8 -8 -11 -9 -17 -2 -17 7 0 8 -8 1 -25 -7 -17 -6 -25 1 -25 8 0 8 -4
0 -13 -6 -8 -8 -17 -4 -21 11 -11 10 -166 -1 -166 -4 0 -3 -7 4 -15 10 -12 10
-15 0 -15 -9 0 -10 -3 -1 -13 8 -10 7 -17 -1 -25 -9 -9 -9 -12 1 -12 9 0 8 -5
-4 -16 -15 -15 -15 -18 2 -37 10 -11 12 -17 6 -13 -9 5 -13 -1 -15 -21 0 -15
-2 -37 -2 -48 -1 -11 -5 -26 -10 -34 -7 -11 -6 -12 5 -6 11 7 12 6 2 -6 -7 -8
-12 -24 -12 -34 -1 -25 -8 -80 -11 -80 -2 0 -4 -10 -5 -22 -1 -13 2 -23 7 -23
5 0 6 -4 3 -10 -3 -5 1 -10 10 -10 10 0 13 -5 9 -12 -5 -8 -2 -9 11 -4 16 6
16 4 4 -11 -9 -11 -10 -14 -1 -9 7 4 15 1 18 -8 3 -9 10 -16 16 -16 5 0 16 -7
24 -15 9 -8 12 -15 7 -15 -4 0 4 -8 20 -18 15 -10 24 -22 20 -25 -3 -4 0 -7 8
-7 8 0 23 -8 34 -17 17 -13 17 -15 2 -9 -11 3 -16 2 -12 -4 3 -6 13 -10 21
-10 8 0 12 -4 9 -10 -3 -6 1 -7 9 -4 11 4 16 0 16 -10 0 -9 5 -16 11 -16 5 0
7 -4 4 -10 -3 -6 1 -7 9 -4 11 4 16 0 16 -11 0 -9 5 -13 10 -10 6 3 10 -1 10
-9 0 -9 5 -16 10 -16 12 0 50 -37 50 -49 0 -5 9 -11 20 -14 11 -3 20 -13 20
-24 0 -15 2 -16 10 -3 8 13 10 12 10 -4 0 -11 3 -16 7 -13 3 4 11 -3 18 -16 6
-12 17 -21 23 -20 6 2 14 -6 17 -17 4 -11 11 -20 16 -20 14 0 39 -26 39 -41 0
-7 3 -10 6 -6 8 8 34 -18 34 -33 0 -6 3 -9 8 -7 10 6 52 -39 44 -48 -3 -3 1
-3 11 1 9 3 17 1 17 -4 0 -12 38 -51 66 -68 11 -7 18 -19 18 -29 -1 -9 0 -14
3 -11 8 8 44 -14 38 -23 -2 -5 4 -11 15 -14 11 -3 20 -12 20 -20 0 -8 8 -17
18 -21 9 -3 22 -8 28 -11 14 -7 38 50 28 66 -4 8 -3 10 4 5 7 -4 12 -4 13 1 3
33 11 58 21 65 7 4 9 10 6 14 -4 3 0 13 8 22 13 12 13 16 2 23 -9 6 -10 9 -1
9 7 0 10 7 7 15 -4 8 -1 15 6 15 6 0 9 4 5 9 -3 5 -1 12 4 16 6 3 8 12 4 20
-3 10 1 15 13 15 14 0 16 2 6 9 -16 10 -14 22 7 39 9 8 10 10 2 6 -10 -5 -12
-3 -6 7 5 7 10 20 11 29 1 8 5 24 9 34 7 15 5 18 -6 12 -8 -4 -5 0 5 8 11 9
16 16 10 16 -5 0 -2 5 6 10 8 5 10 10 3 10 -15 0 -4 40 11 40 6 0 4 5 -4 10
-12 7 -12 10 -1 10 7 0 11 6 7 15 -3 8 0 15 7 15 8 0 6 4 -3 10 -13 9 -13 10
0 10 13 0 13 1 0 10 -12 8 -12 10 5 10 17 0 17 2 5 10 -12 8 -12 10 -1 10 8 0
11 3 8 7 -4 3 -1 13 6 21 9 13 9 14 0 8 -7 -4 -13 -3 -13 3 0 5 4 12 10 16 5
3 6 13 3 22 -5 12 -3 14 8 8 11 -6 12 -5 2 5 -10 11 -9 16 5 27 9 8 11 12 4 8
-13 -6 -12 28 1 41 3 4 2 15 -3 25 -8 13 -6 20 7 28 14 8 15 10 3 11 -9 0 -11
3 -5 8 6 4 10 32 11 62 1 41 5 54 15 52 8 -1 6 4 -5 13 -11 8 -15 15 -9 15 9
0 17 72 14 138 -1 16 3 21 12 16 8 -5 7 -2 -2 9 -11 14 -11 20 0 34 10 11 10
14 2 9 -16 -9 -13 35 2 46 6 5 6 8 -2 8 -12 0 -12 17 0 38 5 7 4 12 -2 12 -12
0 -10 28 3 49 6 10 5 12 -2 7 -15 -9 -15 -1 -1 26 10 18 9 20 -6 14 -13 -5
-15 -3 -9 6 12 15 11 118 0 136 -4 6 -3 12 3 12 6 0 7 11 2 28 -5 15 -7 35 -5
44 1 10 -2 21 -7 24 -6 3 -5 11 2 20 7 8 7 14 1 14 -5 0 -9 27 -8 64 1 45 -2
62 -10 55 -12 -10 -13 19 0 39 4 6 3 12 -3 12 -5 0 -8 12 -6 26 1 14 -4 31
-11 39 -11 11 -11 14 4 20 15 6 15 8 2 18 -14 11 -21 37 -21 82 0 11 -8 34
-19 52 -10 18 -15 35 -11 37 5 3 6 17 4 31 -3 13 -9 23 -13 20 -4 -2 -5 6 -3
19 3 13 0 27 -6 30 -5 4 -8 13 -5 20 3 8 1 17 -5 20 -6 4 -8 13 -4 21 3 8 0
15 -5 15 -6 0 -9 9 -7 20 2 11 0 20 -5 20 -5 0 -7 7 -3 15 3 9 -3 23 -13 31
-11 9 -12 12 -4 8 13 -7 13 -5 1 9 -7 9 -10 17 -6 17 4 0 2 6 -4 14 -6 7 -12
25 -13 40 -1 14 -6 26 -10 26 -4 0 -8 12 -8 26 0 16 -4 23 -11 18 -7 -4 -9 0
-5 14 5 14 1 24 -11 31 -11 6 -13 11 -5 11 7 0 10 5 7 10 -4 6 -10 8 -14 6 -4
-3 -6 8 -5 25 1 16 -2 26 -7 23 -5 -3 -9 7 -9 21 0 15 -4 24 -10 20 -5 -3 -10
3 -10 15 0 22 -19 60 -35 72 -6 5 -4 8 5 8 12 1 11 3 -3 11 -9 6 -15 14 -12
20 4 5 1 9 -5 9 -6 0 -9 4 -5 9 3 5 -1 16 -9 24 -8 8 -12 17 -9 21 4 3 1 6 -6
6 -7 0 -9 5 -6 10 3 6 2 10 -4 10 -6 0 -7 7 -4 17 5 11 3 14 -6 8 -9 -5 -12
-2 -9 11 2 11 -5 27 -16 37 -10 9 -15 17 -11 17 5 0 0 7 -11 16 -10 8 -13 13
-6 9 6 -3 3 10 -9 29 -12 20 -25 36 -30 36 -5 0 -9 12 -9 26 0 14 -4 23 -10
19 -5 -3 -10 1 -10 10 0 9 -9 28 -20 42 -11 14 -20 32 -20 40 0 8 -4 11 -10 8
-5 -3 -10 1 -10 10 0 9 -4 14 -9 10 -6 -3 -8 4 -6 15 2 13 -1 20 -11 20 -8 0
-12 5 -9 10 3 6 -2 10 -12 11 -10 0 -13 3 -6 6 13 5 8 14 -31 53 -10 10 -15
23 -12 29 5 7 1 8 -11 4 -16 -6 -17 -5 -3 12 9 11 10 16 3 11 -8 -4 -17 2 -24
18 -7 14 -16 23 -20 20 -5 -3 -9 0 -9 6 0 6 -9 20 -20 32 -11 12 -20 28 -20
35 0 8 -4 11 -10 8 -5 -3 -10 0 -10 7 0 8 -9 20 -19 28 -11 7 -18 17 -15 21 2
4 -5 10 -16 14 -11 4 -18 10 -15 15 3 5 -7 18 -21 29 -15 12 -23 21 -18 21 5
0 -2 7 -14 16 -12 8 -22 22 -22 31 0 9 -3 14 -6 10 -8 -8 -34 18 -34 33 0 6
-4 8 -10 5 -5 -3 -10 1 -10 10 0 9 -4 13 -10 10 -5 -3 -10 0 -10 7 0 14 -41
54 -50 49 -2 -1 -7 7 -12 18 -4 12 -15 21 -23 21 -9 0 -13 5 -10 10 3 6 -1 10
-10 10 -9 0 -13 5 -10 10 3 6 1 10 -5 10 -15 0 -40 25 -40 40 0 6 -5 8 -10 5
-6 -3 -13 1 -16 9 -3 9 -11 13 -17 9 -7 -4 -8 0 -4 12 6 14 3 16 -13 12 -11
-3 -18 0 -17 7 1 6 -4 10 -10 8 -7 -1 -13 5 -13 13 0 8 -5 15 -11 15 -5 0 -8
4 -4 9 3 5 0 13 -6 17 -8 4 -9 3 -5 -4 4 -7 3 -12 -3 -12 -5 0 -12 9 -16 20
-3 11 -12 19 -18 17 -7 -1 -11 4 -9 11 1 8 -2 11 -7 8 -5 -4 -16 0 -24 8 -8 8
-17 12 -21 9 -3 -4 -6 1 -6 10 0 9 -7 17 -15 17 -8 0 -15 5 -15 11 0 5 -4 7
-10 4 -5 -3 -10 2 -10 11 0 10 -3 15 -6 11 -6 -6 -19 2 -56 38 -11 11 -17 13
-13 5 5 -8 -4 -3 -20 13 -15 15 -32 28 -36 28 -5 1 -14 2 -19 3 -6 0 -21 13
-33 28 -19 21 -26 25 -36 15 -10 -9 -11 -8 -5 6 3 10 3 17 -2 16 -20 -3 -35 2
-30 10 3 5 -5 12 -19 15 -14 4 -25 11 -25 16 0 6 -9 10 -20 10 -11 0 -20 5
-20 11 0 5 -4 7 -10 4 -5 -3 -10 1 -10 9 0 9 -5 16 -11 16 -5 0 -7 -6 -3 -12
4 -7 -4 -4 -17 8 -13 12 -39 27 -56 35 -18 8 -33 17 -33 20 0 4 -7 10 -16 13
-10 4 -13 2 -8 -6 4 -6 -4 -3 -18 8 -14 10 -23 24 -20 29 3 6 -1 4 -10 -3 -9
-7 -18 -9 -20 -4 -1 4 -24 18 -50 30 -27 12 -48 28 -48 35 0 8 -4 7 -10 -3 -6
-10 -10 -11 -10 -2 0 6 -9 12 -20 12 -11 0 -20 4 -20 10 0 5 -7 7 -15 4 -8 -4
-15 -1 -15 6 0 6 -4 8 -10 5 -5 -3 -10 -1 -10 5 0 6 -4 8 -10 5 -5 -3 -10 -1
-10 6 0 7 -3 9 -7 6 -3 -4 -17 0 -31 9 -17 11 -22 12 -16 3 6 -11 5 -12 -8 -2
-8 7 -18 10 -21 6 -4 -3 -7 -1 -7 5 0 7 -6 12 -14 12 -8 0 -17 6 -19 13 -4 9
-6 9 -6 0 -1 -7 -8 -10 -16 -7 -8 4 -13 9 -10 13 2 4 -6 7 -18 6 -12 -1 -28 4
-35 11 -7 7 -20 10 -29 7 -12 -5 -14 -3 -8 7 5 9 4 11 -4 6 -6 -4 -25 -1 -41
8 -17 8 -28 11 -25 6 3 -5 -9 -1 -27 7 -18 9 -48 18 -66 19 -19 1 -38 8 -43
16 -7 10 -9 10 -9 -2 0 -13 -2 -13 -9 -1 -5 8 -18 12 -30 8 -15 -4 -21 0 -21
11 0 15 -2 15 -10 2 -8 -12 -10 -12 -10 -1 0 8 -3 11 -6 8 -4 -3 -16 -2 -27 4
-15 8 -18 8 -12 -1 5 -8 3 -11 -6 -8 -8 3 -13 11 -11 18 2 10 0 11 -11 2 -8
-7 -17 -8 -21 -4 -4 4 -20 7 -34 8 -18 0 -26 5 -24 14 3 10 -2 9 -16 -4 -19
-17 -21 -17 -31 1 -8 14 -10 14 -11 3 0 -12 -2 -13 -9 -1 -6 8 -20 12 -39 9
-19 -3 -29 -1 -25 6 4 5 -1 7 -10 3 -10 -4 -17 -1 -17 6 0 8 -3 8 -9 -2 -5 -7
-11 -9 -14 -4 -3 5 -61 10 -129 11 -160 4 -619 8 -622 5z"/>
<path d="M3532 6263 c-7 -10 -10 -12 -6 -5 7 16 -26 13 -39 -3 -6 -6 -10 -6
-14 2 -3 10 -10 10 -25 2 -11 -6 -31 -9 -45 -6 -19 3 -23 1 -18 -12 5 -13 4
-13 -6 -4 -10 10 -16 10 -28 0 -12 -10 -13 -9 -6 3 8 13 6 13 -8 2 -9 -8 -21
-11 -27 -7 -5 3 -10 2 -10 -2 0 -9 -23 -13 -82 -15 -15 0 -25 -5 -22 -9 5 -9
-1 -11 -47 -12 -17 -1 -25 -6 -22 -13 3 -8 -3 -11 -14 -10 -10 2 -24 -2 -32
-8 -11 -8 -13 -8 -7 2 4 6 -9 3 -28 -9 -20 -12 -36 -18 -36 -14 0 4 -6 2 -13
-4 -8 -6 -17 -8 -20 -4 -4 3 -7 1 -7 -6 0 -8 -7 -11 -15 -7 -9 3 -15 0 -15
-10 0 -11 -6 -15 -20 -11 -12 3 -24 -1 -30 -11 -5 -10 -10 -14 -10 -10 0 4
-16 -1 -36 -12 -20 -12 -32 -15 -28 -8 4 7 -2 5 -13 -5 -11 -9 -23 -15 -26
-12 -4 3 -5 2 -2 -2 6 -8 -26 -32 -46 -33 -8 0 -25 -9 -37 -20 -12 -12 -22
-17 -22 -13 0 4 -6 1 -13 -8 -12 -16 -46 -33 -59 -31 -5 1 -7 -4 -5 -11 1 -6
-6 -11 -15 -11 -10 1 -18 -4 -18 -11 0 -7 -12 -21 -27 -30 -16 -10 -22 -12
-15 -4 6 7 12 18 12 23 0 6 -7 0 -16 -12 -8 -12 -12 -26 -9 -32 3 -6 -1 -7 -9
-4 -9 3 -16 1 -16 -6 0 -6 -4 -8 -10 -5 -5 3 -10 0 -10 -8 0 -8 -15 -22 -34
-32 -19 -11 -33 -23 -30 -27 5 -7 -11 -12 -29 -9 -5 1 -6 -3 -2 -9 3 -5 -1
-13 -9 -16 -9 -3 -14 -10 -11 -14 3 -4 -6 -11 -20 -14 -14 -4 -24 -10 -23 -14
3 -9 -43 -57 -62 -65 -10 -3 -11 -6 -2 -6 7 -1 -5 -19 -28 -41 -22 -21 -40
-44 -40 -49 0 -6 -9 -15 -20 -21 -11 -6 -18 -15 -15 -21 4 -5 -2 -9 -12 -9
-15 0 -16 -2 -3 -10 13 -8 13 -10 -2 -10 -9 0 -20 -5 -24 -12 -5 -7 -2 -9 7
-4 8 4 3 -1 -10 -12 -18 -15 -21 -21 -10 -25 11 -4 11 -6 -1 -6 -12 -1 -53
-57 -69 -96 -2 -5 -12 -18 -22 -29 -10 -10 -16 -23 -13 -28 3 -4 -2 -11 -11
-14 -13 -6 -14 -8 -3 -15 10 -7 10 -9 1 -9 -7 0 -13 -7 -13 -15 0 -8 -8 -15
-17 -16 -11 0 -13 -3 -5 -6 6 -2 12 -9 12 -14 0 -6 -4 -7 -10 -4 -5 3 -10 -3
-10 -15 0 -12 -4 -19 -9 -15 -5 3 -12 1 -16 -5 -3 -5 -2 -10 4 -10 5 0 4 -12
-5 -27 -7 -16 -14 -34 -14 -41 0 -7 -7 -15 -16 -19 -13 -5 -13 -7 -2 -15 11
-7 10 -11 -3 -21 -9 -6 -15 -20 -13 -29 1 -10 -2 -18 -8 -18 -6 0 -7 -7 -4
-16 3 -8 2 -12 -4 -9 -6 3 -11 -4 -12 -17 -1 -13 -2 -30 -3 -38 0 -8 -5 -22
-10 -30 -9 -15 -15 -34 -17 -57 -1 -7 -5 -13 -10 -13 -5 0 -6 -4 -3 -10 3 -5
1 -19 -6 -31 -7 -15 -8 -19 0 -15 7 5 9 1 5 -8 -3 -9 -11 -13 -17 -9 -6 4 -7
1 -1 -8 13 -22 14 -70 1 -63 -8 5 -8 2 1 -7 6 -7 12 -23 12 -36 0 -13 4 -23 9
-23 4 0 8 -8 7 -17 0 -10 11 -36 27 -58 15 -22 27 -35 28 -30 0 6 4 0 9 -12 5
-13 17 -23 25 -23 10 0 13 -5 9 -12 -5 -7 -2 -9 9 -5 9 3 17 1 19 -5 2 -5 18
-16 36 -24 24 -10 31 -10 25 -1 -5 9 -3 9 9 0 8 -7 18 -10 21 -6 4 3 7 1 7 -5
0 -7 5 -12 11 -12 5 0 7 5 3 11 -5 8 29 -4 42 -15 0 -1 8 5 17 12 10 9 17 10
22 2 3 -5 11 -10 16 -10 6 0 8 4 5 9 -3 5 1 11 9 15 8 3 15 0 15 -7 0 -8 4 -6
10 3 5 8 10 11 10 5 0 -5 7 -2 15 9 7 10 18 15 24 11 6 -3 11 -1 11 5 0 6 5 8
12 4 8 -5 9 -2 5 10 -4 10 -3 15 3 11 6 -3 10 -1 10 5 0 6 4 9 9 5 5 -3 12 4
16 15 4 11 10 18 15 15 5 -3 11 4 15 15 3 11 11 20 16 20 5 0 8 3 7 8 -1 8 9
39 23 64 5 11 5 19 -2 24 -7 4 -4 14 8 27 10 11 12 17 6 13 -9 -5 -11 -2 -7 8
3 9 10 16 15 16 5 0 9 5 9 11 0 5 -5 7 -11 3 -6 -3 -3 5 6 20 10 14 14 26 10
26 -3 0 4 17 16 37 13 20 17 33 10 29 -10 -7 -10 -4 0 15 7 13 12 27 11 32 -1
4 6 7 15 7 14 0 15 2 5 9 -11 6 -10 11 3 24 9 9 17 26 18 37 1 11 8 20 17 20
13 0 13 2 0 10 -12 8 -12 10 2 15 9 4 21 20 27 37 6 16 15 27 19 24 5 -3 9 4
8 17 0 12 4 21 11 20 6 -1 14 4 17 13 4 10 1 13 -7 9 -6 -4 -2 2 10 13 12 11
19 22 16 26 -4 3 -1 6 5 6 6 0 14 9 17 20 4 11 11 18 16 15 5 -4 9 1 9 9 0 9
5 16 11 16 5 0 7 5 3 12 -5 8 -2 9 10 5 9 -4 14 -3 11 2 -3 5 -1 12 5 16 6 4
8 11 5 16 -3 5 1 6 10 3 9 -4 15 -3 13 2 -4 11 38 54 52 54 5 0 7 7 4 15 -4
10 0 15 16 15 11 0 18 5 15 10 -3 6 -2 10 3 10 5 0 20 11 34 24 13 14 30 26
38 28 8 2 21 14 28 28 7 14 10 16 7 6 -5 -16 -3 -17 10 -6 8 7 12 16 9 21 -3
5 2 6 10 3 9 -4 18 1 22 10 3 9 12 16 20 16 8 0 14 4 14 8 0 5 20 17 45 28 25
10 45 21 45 24 0 4 18 13 40 20 21 7 37 17 34 21 -2 4 5 6 16 4 11 -2 20 0 20
6 0 5 9 9 20 9 11 0 20 5 20 11 0 5 5 7 10 4 6 -3 10 0 10 7 0 9 3 9 10 -2 7
-11 10 -11 10 -2 0 7 5 10 10 7 6 -3 10 -1 10 5 0 6 5 8 10 5 6 -3 10 0 10 7
0 8 3 9 8 3 11 -15 32 -17 30 -3 -2 8 8 13 25 12 15 0 27 4 27 9 0 5 7 7 15 3
8 -3 15 0 15 7 0 9 2 9 8 0 6 -10 12 -10 28 2 24 18 38 19 28 3 -5 -10 -4 -10
6 -1 7 6 19 9 26 6 8 -3 14 1 14 8 0 11 3 11 10 -1 5 -8 10 -10 10 -3 0 6 8
10 18 8 9 -1 23 2 30 8 8 6 12 6 12 -3 0 -9 3 -10 13 -1 10 8 17 7 25 -1 9 -9
12 -9 12 3 0 12 2 12 10 -1 6 -10 10 -11 10 -2 0 6 5 12 11 12 5 0 7 -6 3 -12
-6 -10 -4 -10 7 0 7 6 17 12 22 12 4 0 5 -6 1 -12 -5 -9 -2 -9 9 1 14 11 17
11 17 0 0 -11 2 -11 10 1 9 13 10 13 10 0 0 -13 1 -13 10 0 9 13 10 13 10 0 0
-12 2 -12 9 -1 6 10 10 10 16 1 5 -8 12 -7 25 5 12 11 20 13 25 6 4 -8 12 -8
26 -1 11 6 23 8 28 6 5 -3 12 1 15 10 3 8 10 12 16 9 5 -3 10 2 11 12 0 10 3
13 6 6 5 -13 69 42 73 62 1 6 8 14 16 18 8 4 14 17 14 27 0 11 5 20 11 20 5 0
7 5 4 11 -4 6 1 17 11 25 11 9 13 13 7 9 -7 -3 -13 -2 -13 4 0 5 6 12 13 14 9
4 9 6 -1 6 -7 1 -11 5 -7 10 10 17 13 71 4 77 -5 3 -7 10 -3 15 3 5 0 17 -8
26 -11 14 -11 16 2 9 8 -4 6 0 -4 8 -15 12 -16 16 -5 16 9 0 10 3 3 8 -6 4
-13 15 -17 25 -4 10 -11 16 -16 12 -6 -3 -8 4 -6 16 2 12 2 19 -1 16 -7 -7
-59 46 -56 57 2 5 -4 6 -13 2 -8 -3 -23 2 -33 12 -9 9 -24 17 -32 17 -8 -1
-18 3 -21 9 -8 11 -272 15 -311 5 -15 -4 -28 -3 -30 2 -2 5 -9 1 -16 -8z"/>
<path d="M7145 5140 c3 -5 8 -10 11 -10 2 0 4 5 4 10 0 6 -5 10 -11 10 -5 0
-7 -4 -4 -10z"/>
<path d="M19 4813 c-13 -16 -12 -17 4 -4 9 7 17 15 17 17 0 8 -8 3 -21 -13z"/>
<path d="M3374 141 c3 -5 -13 -9 -36 -9 -22 -1 -45 -5 -51 -11 -6 -6 2 -7 24
-2 19 4 43 5 54 1 11 -4 29 -4 40 0 11 4 26 5 33 3 6 -3 12 2 12 11 0 17 -12
21 -24 9 -10 -11 -36 -12 -36 -2 0 5 -5 9 -11 9 -5 0 -8 -4 -5 -9z"/>
<path d="M3465 139 c-10 -15 5 -30 23 -24 28 8 82 13 82 6 0 -3 45 -6 100 -6
55 0 100 2 100 5 0 9 44 5 60 -5 8 -5 15 -5 17 1 2 5 22 8 46 6 23 -3 40 -2
37 1 -3 3 -23 7 -45 9 -22 2 -46 8 -54 12 -7 5 -16 5 -20 0 -8 -12 -31 -16
-31 -6 0 10 -61 8 -78 -2 -7 -4 -12 -2 -12 3 0 6 -5 11 -11 11 -5 0 -8 -4 -5
-8 3 -5 -1 -9 -9 -9 -8 0 -12 4 -9 9 3 4 -2 8 -11 8 -9 0 -14 -4 -11 -8 3 -5
-1 -9 -9 -9 -8 0 -12 3 -10 7 6 10 -87 6 -104 -4 -9 -6 -12 -5 -8 0 3 6 -3 10
-13 11 -11 1 -22 -2 -25 -8z"/>
<path d="M3940 120 c0 -5 7 -7 15 -4 8 4 15 8 15 10 0 2 -7 4 -15 4 -8 0 -15
-4 -15 -10z"/>
<path d="M3988 123 c7 -3 16 -2 19 1 4 3 -2 6 -13 5 -11 0 -14 -3 -6 -6z"/>
</g>
</svg>
