<svg width="39" height="39" viewBox="0 0 39 39" fill="none" xmlns="http://www.w3.org/2000/svg">
<path d="M19.6491 11.4381C20.8684 11.4381 22.3969 10.6137 23.3071 9.51461C24.1315 8.51853 24.7325 7.12745 24.7325 5.73637C24.7325 5.54746 24.7154 5.35854 24.681 5.20398C23.3243 5.2555 21.6928 6.11419 20.7139 7.26484C19.9411 8.1407 19.2369 9.51461 19.2369 10.9229C19.2369 11.1289 19.2713 11.335 19.2884 11.4037C19.3743 11.4209 19.5117 11.4381 19.6491 11.4381ZM15.3556 32.2184C17.0215 32.2184 17.76 31.1021 19.838 31.1021C21.9504 31.1021 22.4141 32.1841 24.2689 32.1841C26.0893 32.1841 27.3086 30.501 28.4593 28.8523C29.7473 26.9632 30.2797 25.1084 30.314 25.0226C30.1938 24.9882 26.7075 23.5628 26.7075 19.5613C26.7075 16.0922 29.4553 14.5294 29.6099 14.4091C27.7895 11.7987 25.0245 11.73 24.2689 11.73C22.2252 11.73 20.5593 12.9665 19.5117 12.9665C18.3782 12.9665 16.8841 11.7987 15.1152 11.7987C11.7491 11.7987 8.33154 14.5809 8.33154 19.8361C8.33154 23.0991 9.60241 26.551 11.1652 28.7836C12.5048 30.6728 13.6726 32.2184 15.3556 32.2184Z" fill="black"/>
</svg>
