<svg width="23" height="28" viewBox="0 0 23 28" fill="none" xmlns="http://www.w3.org/2000/svg">
<path d="M11.6496 6.93796C12.8689 6.93796 14.3974 6.11361 15.3076 5.01449C16.1319 4.0184 16.733 2.62733 16.733 1.23625C16.733 1.04733 16.7159 0.858422 16.6815 0.703857C15.3248 0.755379 13.6933 1.61407 12.7144 2.76472C11.9415 3.64058 11.2374 5.01449 11.2374 6.42274C11.2374 6.62883 11.2718 6.83491 11.2889 6.90361C11.3748 6.92078 11.5122 6.93796 11.6496 6.93796ZM7.35613 27.7183C9.02199 27.7183 9.76046 26.602 11.8385 26.602C13.9509 26.602 14.4146 27.6839 16.2693 27.6839C18.0898 27.6839 19.3091 26.0009 20.4598 24.3522C21.7478 22.4631 22.2802 20.6083 22.3145 20.5225C22.1943 20.4881 18.708 19.0627 18.708 15.0612C18.708 11.5921 21.4558 10.0292 21.6104 9.90903C19.79 7.29861 17.025 7.22991 16.2693 7.22991C14.2257 7.22991 12.5598 8.46643 11.5122 8.46643C10.3787 8.46643 8.8846 7.29861 7.11569 7.29861C3.74962 7.29861 0.332031 10.0808 0.332031 15.336C0.332031 18.599 1.60289 22.0509 3.16571 24.2835C4.50527 26.1726 5.67309 27.7183 7.35613 27.7183Z" fill="black"/>
</svg>
