<svg width="19" height="19" viewBox="0 0 19 19" fill="none" xmlns="http://www.w3.org/2000/svg">
<path d="M12.305 3.23743H5.94503C4.09253 3.23743 2.59253 4.74493 2.59253 6.58993V13.6474C2.59253 15.4924 4.10003 16.9999 5.94503 16.9999H12.2975C14.15 16.9999 15.65 15.4924 15.65 13.6474V6.58993C15.6575 4.73743 14.15 3.23743 12.305 3.23743Z" fill="#13E99C"/>
<path d="M10.8873 2H7.36232C6.58232 2 5.94482 2.63 5.94482 3.41V4.115C5.94482 4.895 6.57482 5.525 7.35482 5.525H10.8873C11.6673 5.525 12.2973 4.895 12.2973 4.115V3.41C12.3048 2.63 11.6673 2 10.8873 2Z" fill="white"/>
<path d="M11.375 10.2125H6.125C5.8175 10.2125 5.5625 9.95746 5.5625 9.64996C5.5625 9.34246 5.8175 9.08746 6.125 9.08746H11.375C11.6825 9.08746 11.9375 9.34246 11.9375 9.64996C11.9375 9.95746 11.6825 10.2125 11.375 10.2125Z" fill="white"/>
<path d="M9.41 13.2125H6.125C5.8175 13.2125 5.5625 12.9575 5.5625 12.65C5.5625 12.3425 5.8175 12.0875 6.125 12.0875H9.41C9.7175 12.0875 9.9725 12.3425 9.9725 12.65C9.9725 12.9575 9.7175 13.2125 9.41 13.2125Z" fill="white"/>
</svg>
