<svg width="144" height="141" viewBox="0 0 144 141" fill="none" xmlns="http://www.w3.org/2000/svg">
<path d="M59.5717 110.228C87.404 122.274 119.734 109.476 131.823 81.544C143.912 53.6124 131.014 21.2395 103.281 9.2366C75.4488 -2.80936 43.119 9.98881 31.03 37.9205C18.9411 65.8521 31.7393 98.1819 59.5717 110.228Z" fill="#F6FAFF"/>
<path d="M120.852 115.48C123.103 116.454 125.718 115.419 126.692 113.168C127.666 110.918 126.631 108.303 124.38 107.329C122.129 106.355 119.515 107.39 118.541 109.641C117.567 111.891 118.602 114.506 120.852 115.48Z" fill="#EAEEF9"/>
<path d="M133.7 102.157C135.237 102.822 137.023 102.115 137.688 100.578C138.353 99.041 137.647 97.2556 136.109 96.5903C134.572 95.9251 132.787 96.6318 132.122 98.169C131.456 99.7061 132.163 101.492 133.7 102.157Z" fill="#EAEEF9"/>
<path d="M48.083 5.88237C49.6202 6.54765 51.4056 5.84088 52.0709 4.30375C52.7361 2.76661 52.0294 0.981204 50.4922 0.315924C48.9551 -0.349356 47.1697 0.357421 46.5044 1.89455C45.8391 3.43169 46.5459 5.21709 48.083 5.88237Z" fill="#EAEEF9"/>
<path d="M7.85482 52.2021C10.7095 53.4376 14.0253 52.1251 15.2608 49.2704C16.4963 46.4157 15.1837 43.0999 12.329 41.8644C9.47433 40.6289 6.15857 41.9415 4.92305 44.7962C3.68754 47.6508 5.00013 50.9666 7.85482 52.2021Z" fill="#EAEEF9"/>
<path d="M118.495 77.1912L121.532 77.5441C121.751 77.5719 121.873 77.2894 121.703 77.1487L119.367 75.1765C119.306 75.1278 119.278 75.0558 119.289 74.9786L119.639 71.9482C119.667 71.7292 119.384 71.607 119.244 71.7771L117.274 74.1067C117.225 74.1675 117.153 74.196 117.076 74.185L114.046 73.8347C113.827 73.807 113.705 74.0894 113.875 74.2301L116.211 76.2024C116.271 76.2511 116.3 76.323 116.289 76.4002L115.936 79.4369C115.908 79.6559 116.191 79.7782 116.331 79.608L118.304 77.2722C118.346 77.2086 118.418 77.1801 118.495 77.1912Z" fill="#ADB6C8"/>
<path d="M115.068 41.4818L118.104 41.8348C118.323 41.8626 118.445 41.5801 118.275 41.4394L115.939 39.4672C115.879 39.4185 115.85 39.3466 115.861 39.2694L116.211 36.2391C116.239 36.0201 115.957 35.8979 115.816 36.068L113.846 38.3974C113.798 38.4583 113.726 38.4868 113.649 38.4757L110.618 38.1254C110.399 38.0977 110.277 38.3801 110.447 38.5208L112.783 40.493C112.844 40.5417 112.872 40.6137 112.861 40.6909L112.508 43.7274C112.481 43.9464 112.763 44.0686 112.904 43.8985L114.876 41.5628C114.918 41.4992 114.99 41.4708 115.068 41.4818Z" fill="#ADB6C8"/>
<path d="M73.2149 27.3502L75.872 27.6591C76.0636 27.6834 76.1706 27.4363 76.0217 27.3132L73.9778 25.5875C73.9245 25.5449 73.8996 25.4819 73.9093 25.4144L74.2157 22.7629C74.24 22.5713 73.9928 22.4643 73.8697 22.6132L72.1464 24.6514C72.1038 24.7047 72.0409 24.7296 71.9733 24.7199L69.3217 24.4134C69.1301 24.3891 69.0231 24.6362 69.172 24.7594L71.2159 26.4851C71.2692 26.5277 71.2941 26.5906 71.2844 26.6582L70.9756 29.3151C70.9514 29.5067 71.1985 29.6137 71.3216 29.4649L73.0473 27.4211C73.0844 27.3655 73.1473 27.3406 73.2149 27.3502Z" fill="#ADB6C8"/>
<path d="M37.6329 63.2051L40.3338 63.4128C40.5285 63.43 40.6508 63.1475 40.505 63.0174L38.5049 61.1904C38.4526 61.1454 38.4304 61.0762 38.4438 61L38.8953 58.0135C38.9301 57.7975 38.683 57.6905 38.5493 57.8637L36.681 60.2371C36.6346 60.299 36.569 60.3302 36.5004 60.3229L33.805 60.1176C33.6103 60.1004 33.4881 60.3828 33.6339 60.513L35.6339 62.3399C35.6862 62.3849 35.7084 62.4541 35.695 62.5303L35.2408 65.5232C35.206 65.7391 35.4531 65.8461 35.5868 65.6729L37.4578 63.2933C37.4987 63.229 37.5644 63.1978 37.6329 63.2051Z" fill="#ADB6C8"/>
<path d="M47.1189 30.9635L49.0168 31.1842C49.1537 31.2015 49.2301 31.025 49.1238 30.9371L47.6639 29.7045C47.6258 29.674 47.608 29.6291 47.6149 29.5808L47.8338 27.687C47.8511 27.5501 47.6746 27.4737 47.5866 27.58L46.3557 29.0358C46.3253 29.0739 46.2803 29.0917 46.2321 29.0848L44.3381 28.8658C44.2012 28.8485 44.1248 29.025 44.2311 29.1129L45.6911 30.3456C45.7291 30.376 45.7469 30.421 45.74 30.4692L45.5195 32.367C45.5021 32.5039 45.6787 32.5803 45.7666 32.4739L46.9992 31.0142C47.0257 30.9744 47.0707 30.9566 47.1189 30.9635Z" fill="#ADB6C8"/>
<path d="M57.824 55.3135L59.7219 55.5342C59.8588 55.5515 59.9352 55.375 59.8289 55.2871L58.3689 54.0544C58.3309 54.024 58.3131 53.979 58.32 53.9308L58.5388 52.0369C58.5562 51.9001 58.3796 51.8237 58.2917 51.93L57.0608 53.3858C57.0304 53.4239 56.9854 53.4417 56.9371 53.4348L55.0432 53.2158C54.9063 53.1985 54.8299 53.375 54.9362 53.4629L56.3961 54.6955C56.4342 54.726 56.452 54.7709 56.4451 54.8192L56.2245 56.717C56.2072 56.8538 56.3837 56.9302 56.4717 56.8239L57.7043 55.3642C57.7308 55.3244 57.7758 55.3066 57.824 55.3135Z" fill="#ADB6C8"/>
<path d="M92.5349 14.169L94.4328 14.3896C94.5697 14.407 94.6461 14.2305 94.5398 14.1425L93.0799 12.9099C93.0418 12.8795 93.024 12.8345 93.0309 12.7863L93.2498 10.8924C93.2671 10.7555 93.0906 10.6791 93.0026 10.7854L91.7717 12.2413C91.7413 12.2793 91.6963 12.2971 91.6481 12.2902L89.7541 12.0713C89.6172 12.0539 89.5408 12.2304 89.6472 12.3184L91.1071 13.551C91.1451 13.5814 91.1629 13.6264 91.156 13.6746L90.9355 15.5724C90.9181 15.7093 91.0947 15.7857 91.1826 15.6794L92.4152 14.2196C92.4417 14.1799 92.4867 14.1621 92.5349 14.169Z" fill="#ADB6C8"/>
<path d="M101.191 103.304L103.089 103.525C103.226 103.542 103.302 103.366 103.196 103.278L101.736 102.045C101.698 102.015 101.68 101.97 101.687 101.922L101.906 100.028C101.923 99.891 101.747 99.8146 101.659 99.9209L100.428 101.377C100.398 101.415 100.353 101.433 100.304 101.426L98.4104 101.207C98.2735 101.189 98.1971 101.366 98.3034 101.454L99.7633 102.687C99.8014 102.717 99.8192 102.762 99.8123 102.81L99.5917 104.708C99.5744 104.845 99.7509 104.921 99.8389 104.815L101.071 103.355C101.098 103.315 101.143 103.298 101.191 103.304Z" fill="#ADB6C8"/>
<path d="M63.246 61.0109C57.6857 62.2612 50.1958 64.3254 48.4969 68.2507C47.5019 70.5497 46.0855 73.8223 45.0826 76.1394C44.6775 77.0755 45.7734 78.2218 46.7752 78.0301C49.4153 77.5249 53.6332 77.4521 58.4947 80.1064C66.7302 84.6029 62.8657 65.8654 62.8657 65.8654L63.246 61.0109Z" fill="#0EF7A3"/>
<path d="M93.9851 74.3143C96.8532 79.2841 100.501 86.0971 98.8022 90.0224C97.8072 92.3214 96.3908 95.594 95.3879 97.9112C94.9828 98.8472 93.3969 98.8329 92.851 97.9713C91.4123 95.7008 88.5784 92.5759 83.3157 90.8484C74.4006 87.922 90.7062 77.9143 90.7062 77.9143L93.9851 74.3143Z" fill="#0EF7A3"/>
<g filter="url(#filter0_d_53_9026)">
<path d="M97.2999 24.4108C86.8716 26.6373 71.2925 36.4576 65.3596 54.97C59.3663 73.4563 57.0862 82.8661 59.4325 86.3912C61.8391 89.9423 64.891 91.8368 67.6086 93.0129C70.3261 94.1891 73.7962 95.1174 78.0324 94.4413C82.2686 93.7652 87.5078 85.636 96.8829 68.6134C106.258 51.5908 102.754 33.5113 97.2999 24.4108Z" fill="#2F42FA"/>
</g>
<g filter="url(#filter1_d_53_9026)">
<path d="M72.5766 98.1028L60.4987 92.8754C59.5325 92.4573 59.1476 91.3586 59.5396 90.4527L60.8203 87.4937L76.3404 94.2108L75.0858 97.1095C74.6072 98.0496 73.4824 98.4949 72.5766 98.1028Z" fill="url(#paint0_linear_53_9026)"/>
</g>
<path d="M79.8491 67.0493L78.1582 66.3175L68.5138 88.6011L70.2047 89.333L79.8491 67.0493Z" fill="#0EF7A3"/>
<path d="M84.2566 54.5452C87.5585 55.9743 91.3936 54.4561 92.8227 51.1542C94.2517 47.8524 92.7335 44.0172 89.4317 42.5882C86.1298 41.1591 82.2946 42.6773 80.8656 45.9791C79.4365 49.281 80.9547 53.1162 84.2566 54.5452Z" fill="#F9822C" stroke="#FEFFCC" stroke-width="4.33246" stroke-miterlimit="10"/>
<path d="M69.8177 110.604C67.7007 115.496 53.1638 138.315 48.2723 136.198C43.3808 134.081 50.067 107.864 52.184 102.972C54.3011 98.0807 59.9253 95.8543 64.8169 97.9714C69.7084 100.088 71.9087 105.773 69.8177 110.604Z" fill="#0EF7A3"/>
<path d="M53.16 124.905C53.0292 120.403 55.5318 109.153 56.9694 105.832C57.858 103.779 60.2807 102.82 62.334 103.708C64.3872 104.597 65.3463 107.02 64.4577 109.073C63.0201 112.394 56.5579 121.858 53.16 124.905Z" fill="white"/>
<defs>
<filter id="filter0_d_53_9026" x="34.6969" y="12.4965" width="91.8426" height="117.916" filterUnits="userSpaceOnUse" color-interpolation-filters="sRGB">
<feFlood flood-opacity="0" result="BackgroundImageFix"/>
<feColorMatrix in="SourceAlpha" type="matrix" values="0 0 0 0 0 0 0 0 0 0 0 0 0 0 0 0 0 0 127 0" result="hardAlpha"/>
<feOffset dy="11.9143"/>
<feGaussianBlur stdDeviation="11.9143"/>
<feColorMatrix type="matrix" values="0 0 0 0 0.397708 0 0 0 0 0.47749 0 0 0 0 0.575 0 0 0 0.27 0"/>
<feBlend mode="normal" in2="BackgroundImageFix" result="effect1_dropShadow_53_9026"/>
<feBlend mode="normal" in="SourceGraphic" in2="effect1_dropShadow_53_9026" result="shape"/>
</filter>
<filter id="filter1_d_53_9026" x="35.5601" y="75.5794" width="64.6082" height="58.4087" filterUnits="userSpaceOnUse" color-interpolation-filters="sRGB">
<feFlood flood-opacity="0" result="BackgroundImageFix"/>
<feColorMatrix in="SourceAlpha" type="matrix" values="0 0 0 0 0 0 0 0 0 0 0 0 0 0 0 0 0 0 127 0" result="hardAlpha"/>
<feOffset dy="11.9143"/>
<feGaussianBlur stdDeviation="11.9143"/>
<feColorMatrix type="matrix" values="0 0 0 0 0.397708 0 0 0 0 0.47749 0 0 0 0 0.575 0 0 0 0.27 0"/>
<feBlend mode="normal" in2="BackgroundImageFix" result="effect1_dropShadow_53_9026"/>
<feBlend mode="normal" in="SourceGraphic" in2="effect1_dropShadow_53_9026" result="shape"/>
</filter>
<linearGradient id="paint0_linear_53_9026" x1="68.6218" y1="90.7425" x2="66.5411" y2="95.5501" gradientUnits="userSpaceOnUse">
<stop stop-color="#FDFEFF"/>
<stop offset="0.9964" stop-color="#ECF0F5"/>
</linearGradient>
</defs>
</svg>
