<svg width="19" height="19" viewBox="0 0 19 19" fill="none" xmlns="http://www.w3.org/2000/svg">
<path d="M15.75 8.1425H13.5825C11.805 8.1425 10.3575 6.695 10.3575 4.9175V2.75C10.3575 2.3375 10.02 2 9.6075 2H6.4275C4.1175 2 2.25 3.5 2.25 6.1775V12.8225C2.25 15.5 4.1175 17 6.4275 17H12.3225C14.6325 17 16.5 15.5 16.5 12.8225V8.8925C16.5 8.48 16.1625 8.1425 15.75 8.1425Z" fill="#13E99C"/>
<path d="M12.2253 2.15749C11.9178 1.84999 11.3853 2.05999 11.3853 2.48749V5.10499C11.3853 6.19999 12.3153 7.10749 13.4478 7.10749C14.1603 7.115 15.1503 7.11499 15.9978 7.11499C16.4253 7.11499 16.6503 6.61249 16.3503 6.31249C15.2703 5.22499 13.3353 3.26749 12.2253 2.15749Z" fill="white"/>
<path d="M10.5 10.8125H6C5.6925 10.8125 5.4375 10.5575 5.4375 10.25C5.4375 9.9425 5.6925 9.6875 6 9.6875H10.5C10.8075 9.6875 11.0625 9.9425 11.0625 10.25C11.0625 10.5575 10.8075 10.8125 10.5 10.8125Z" fill="white"/>
<path d="M9 13.8125H6C5.6925 13.8125 5.4375 13.5575 5.4375 13.25C5.4375 12.9425 5.6925 12.6875 6 12.6875H9C9.3075 12.6875 9.5625 12.9425 9.5625 13.25C9.5625 13.5575 9.3075 13.8125 9 13.8125Z" fill="white"/>
</svg>
