<svg width="32" height="32" viewBox="0 0 32 32" fill="none" xmlns="http://www.w3.org/2000/svg">
<path fill-rule="evenodd" clip-rule="evenodd" d="M31.92 16.6353C31.92 15.5263 31.8184 14.46 31.6298 13.4363H16.5992V19.4861H25.1882C24.8182 21.4411 23.6938 23.0975 22.0036 24.2065V28.1307H27.1613C30.179 25.4079 31.92 21.3984 31.92 16.6353Z" fill="#4285F4"/>
<path fill-rule="evenodd" clip-rule="evenodd" d="M16.5993 31.9197C20.9082 31.9197 24.5208 30.5193 27.1613 28.1307L22.0036 24.2065C20.5745 25.1449 18.7465 25.6993 16.5993 25.6993C12.4426 25.6993 8.92438 22.9481 7.66941 19.2514H2.33761V23.3035C4.96362 28.4149 10.3607 31.9197 16.5993 31.9197Z" fill="#34A853"/>
<path fill-rule="evenodd" clip-rule="evenodd" d="M7.66941 19.2514C7.35023 18.313 7.16887 17.3107 7.16887 16.2799C7.16887 15.2491 7.35022 14.2467 7.6694 13.3083V9.25614H2.33761C1.25674 11.3675 0.640137 13.7562 0.640137 16.2799C0.640137 18.8036 1.25675 21.1921 2.33761 23.3035L7.66941 19.2514Z" fill="#FBBC05"/>
<path fill-rule="evenodd" clip-rule="evenodd" d="M16.5993 6.86031C18.9424 6.86031 21.0461 7.64942 22.7 9.19919L27.2774 4.71338C24.5135 2.18967 20.901 0.639893 16.5993 0.639893C10.3607 0.639893 4.96361 4.14474 2.33761 9.25614L7.6694 13.3083C8.92437 9.61159 12.4426 6.86031 16.5993 6.86031Z" fill="#EA4335"/>
</svg>
