<svg width="19" height="19" viewBox="0 0 19 19" fill="none" xmlns="http://www.w3.org/2000/svg">
<path d="M17.125 5.1875V9.01248C17.125 9.96498 16.81 10.7675 16.2475 11.3225C15.6925 11.885 14.89 12.2 13.9375 12.2V13.5575C13.9375 14.0675 13.3675 14.375 12.9475 14.09L12.22 13.61C12.2875 13.3775 12.3175 13.1225 12.3175 12.8525V9.80002C12.3175 8.27002 11.2975 7.25 9.7675 7.25H4.675C4.57 7.25 4.4725 7.25751 4.375 7.26501V5.1875C4.375 3.275 5.65 2 7.5625 2H13.9375C15.85 2 17.125 3.275 17.125 5.1875Z" fill="#13E99C"/>
<path d="M12.3175 9.80002V12.8525C12.3175 13.1225 12.2875 13.3775 12.22 13.61C11.9425 14.7125 11.0275 15.4025 9.7675 15.4025H7.7275L5.4625 16.91C5.125 17.1425 4.675 16.895 4.675 16.49V15.4025C3.91 15.4025 3.2725 15.1475 2.83 14.705C2.38 14.255 2.125 13.6175 2.125 12.8525V9.80002C2.125 8.37502 3.01 7.39251 4.375 7.26501C4.4725 7.25751 4.57 7.25 4.675 7.25H9.7675C11.2975 7.25 12.3175 8.27002 12.3175 9.80002Z" fill="white"/>
</svg>
