<svg width="19" height="19" viewBox="0 0 19 19" fill="none" xmlns="http://www.w3.org/2000/svg">
<path d="M14.7153 7.34008C14.4228 7.34008 14.1903 7.57258 14.1903 7.86508V9.05008C14.1903 11.7051 12.0303 13.8651 9.37525 13.8651C6.72025 13.8651 4.56025 11.7051 4.56025 9.05008V7.85758C4.56025 7.56508 4.32775 7.33258 4.03525 7.33258C3.74275 7.33258 3.51025 7.56508 3.51025 7.85758V9.04258C3.51025 12.0951 5.85775 14.6076 8.85025 14.8776V16.4751C8.85025 16.7676 9.08275 17.0001 9.37525 17.0001C9.66775 17.0001 9.90025 16.7676 9.90025 16.4751V14.8776C12.8853 14.6151 15.2403 12.0951 15.2403 9.04258V7.85758C15.2328 7.57258 15.0003 7.34008 14.7153 7.34008Z" fill="#13E99C"/>
<path d="M9.37506 2C7.54506 2 6.06006 3.485 6.06006 5.315V9.155C6.06006 10.985 7.54506 12.47 9.37506 12.47C11.2051 12.47 12.6901 10.985 12.6901 9.155V5.315C12.6901 3.485 11.2051 2 9.37506 2ZM10.3576 7.2125C10.3051 7.4075 10.1326 7.535 9.93756 7.535C9.90006 7.535 9.86256 7.5275 9.82506 7.52C9.53256 7.4375 9.22506 7.4375 8.93256 7.52C8.69256 7.5875 8.46006 7.445 8.40006 7.2125C8.33256 6.98 8.47506 6.74 8.70756 6.68C9.15006 6.56 9.61506 6.56 10.0576 6.68C10.2826 6.74 10.4176 6.98 10.3576 7.2125ZM10.7551 5.7575C10.6876 5.9375 10.5226 6.0425 10.3426 6.0425C10.2901 6.0425 10.2451 6.035 10.1926 6.02C9.66756 5.825 9.08256 5.825 8.55756 6.02C8.33256 6.1025 8.07756 5.9825 7.99506 5.7575C7.91256 5.5325 8.03256 5.2775 8.25756 5.2025C8.97756 4.94 9.77256 4.94 10.4926 5.2025C10.7176 5.285 10.8376 5.5325 10.7551 5.7575Z" fill="white"/>
</svg>
