<svg width="150" height="154" viewBox="0 0 150 154" fill="none" xmlns="http://www.w3.org/2000/svg">
<path d="M73.0515 127.481C106.047 127.481 132.796 100.731 132.796 67.618C132.796 34.5051 106.047 7.75549 73.0515 7.75549C40.0563 7.75549 13.3066 34.5051 13.3066 67.618C13.3066 100.731 40.0563 127.481 73.0515 127.481Z" fill="#EAEEF9"/>
<path d="M139.63 42.9895C142.299 42.9895 144.462 40.8264 144.462 38.1581C144.462 35.4898 142.299 33.3267 139.63 33.3267C136.962 33.3267 134.799 35.4898 134.799 38.1581C134.799 40.8264 136.962 42.9895 139.63 42.9895Z" fill="#EAEEF9"/>
<path d="M146.7 24.0174C148.522 24.0174 149.999 22.5401 149.999 20.7178C149.999 18.8956 148.522 17.4183 146.7 17.4183C144.878 17.4183 143.4 18.8956 143.4 20.7178C143.4 22.5401 144.878 24.0174 146.7 24.0174Z" fill="#EAEEF9"/>
<path d="M9.29952 46.4069C11.1218 46.4069 12.599 44.9296 12.599 43.1074C12.599 41.2851 11.1218 39.8079 9.29952 39.8079C7.47725 39.8079 6 41.2851 6 43.1074C6 44.9296 7.47725 46.4069 9.29952 46.4069Z" fill="#EAEEF9"/>
<path d="M15.4265 118.171C18.8107 118.171 21.5542 115.428 21.5542 112.044C21.5542 108.659 18.8107 105.916 15.4265 105.916C12.0423 105.916 9.29883 108.659 9.29883 112.044C9.29883 115.428 12.0423 118.171 15.4265 118.171Z" fill="#EAEEF9"/>
<path d="M77.7679 14.0145H67.8809V20.4494H77.7679V14.0145Z" fill="#D1D9E7"/>
<path d="M40.2911 26.8327L34.9258 32.1953L38.8278 36.0954L44.1932 30.7328L40.2911 26.8327Z" fill="#D5DDEA"/>
<path d="M103.033 30.3376L108.398 35.7002L111.894 32.2064L106.529 26.8438L103.033 30.3376Z" fill="#D5DDEA"/>
<path d="M76.5041 116.168C102.791 116.168 124.1 94.8693 124.1 68.596C124.1 42.3226 102.791 21.0239 76.5041 21.0239C50.2176 21.0239 28.9082 42.3226 28.9082 68.596C28.9082 94.8693 50.2176 116.168 76.5041 116.168Z" fill="#D5DDEA"/>
<g filter="url(#filter0_d_53_10042)">
<path d="M73.6291 114.444C99.9155 114.444 121.225 93.1455 121.225 66.8722C121.225 40.5989 99.9155 19.3002 73.6291 19.3002C47.3426 19.3002 26.0332 40.5989 26.0332 66.8722C26.0332 93.1455 47.3426 114.444 73.6291 114.444Z" fill="url(#paint0_linear_53_10042)"/>
</g>
<path d="M31.667 69.5151C30.5174 69.5151 29.5977 68.5959 29.5977 67.4468C29.5977 67.217 29.5977 66.9871 29.5977 66.8722C29.5977 44.6949 46.1527 25.9649 68.1112 23.2071C69.2609 23.0922 70.2956 23.8965 70.4105 25.0456C70.5255 26.1947 69.7207 27.2289 68.5711 27.3438C48.682 29.8718 33.7364 46.8782 33.7364 66.8722C33.7364 67.1021 33.7364 67.217 33.7364 67.4468C33.7364 68.5959 32.8167 69.5151 31.667 69.5151Z" fill="white"/>
<path opacity="0.3" d="M110.762 66.8722C110.762 67.3318 110.762 67.6766 110.762 68.1362C110.072 88.0153 93.7471 103.988 73.6281 103.988C53.5091 103.988 37.1839 88.0153 36.4941 68.1362C36.4941 67.6766 36.4941 67.3318 36.4941 66.8722C36.4941 46.8782 52.3594 30.4463 72.2485 29.7568C72.7084 29.7568 73.1682 29.7568 73.6281 29.7568C93.9771 29.7568 110.417 46.0738 110.762 66.1828C110.762 66.4126 110.762 66.6424 110.762 66.8722Z" fill="#CCD5E3"/>
<path d="M110.762 68.1363C110.072 88.0154 93.7471 103.988 73.6281 103.988C53.5091 103.988 37.1839 88.0154 36.4941 68.1363C37.1839 48.2572 53.5091 32.2849 73.6281 32.2849C93.7471 32.17 110.072 48.1423 110.762 68.1363Z" fill="white"/>
<path d="M105.819 68.7108H99.7262C98.6915 68.7108 97.8867 67.9064 97.8867 66.8722C97.8867 65.838 98.6915 65.0337 99.7262 65.0337H105.819C106.854 65.0337 107.659 65.838 107.659 66.8722C107.659 67.9064 106.739 68.7108 105.819 68.7108Z" fill="#CBD4E2"/>
<path d="M45.6924 68.7108H39.5992C38.5645 68.7108 37.7598 67.9064 37.7598 66.8722C37.7598 65.838 38.5645 65.0337 39.5992 65.0337H45.6924C46.7271 65.0337 47.5319 65.838 47.5319 66.8722C47.5319 67.9064 46.6121 68.7108 45.6924 68.7108Z" fill="#CBD4E2"/>
<path d="M72.7086 101.919C71.6739 101.919 70.8691 101.115 70.8691 100.081V93.9905C70.8691 92.9563 71.6739 92.152 72.7086 92.152C73.7433 92.152 74.548 92.9563 74.548 93.9905V100.081C74.4331 101.115 73.6283 101.919 72.7086 101.919Z" fill="#CBD4E2"/>
<path d="M72.7086 41.8222C71.6739 41.8222 70.8691 41.0179 70.8691 39.9837V34.0085C70.8691 32.9743 71.6739 32.1699 72.7086 32.1699C73.7433 32.1699 74.548 32.9743 74.548 34.0085V40.0986C74.4331 41.0179 73.6283 41.8222 72.7086 41.8222Z" fill="#CBD4E2"/>
<path d="M73.1685 71.9282C76.2797 71.9282 78.8018 69.4074 78.8018 66.2977C78.8018 63.1881 76.2797 60.6672 73.1685 60.6672C70.0573 60.6672 67.5352 63.1881 67.5352 66.2977C67.5352 69.4074 70.0573 71.9282 73.1685 71.9282Z" fill="#F2F5FC"/>
<path opacity="0.3" d="M103.766 68.9746C103.729 68.1349 103.076 67.4187 102.316 67.383L75.301 66.7996C75.2285 66.7201 75.2285 66.7201 75.156 66.6405C74.2138 65.6059 72.6936 65.5345 71.6596 66.4762C71.58 66.5487 71.5005 66.6211 71.421 66.6936L67.0848 66.5661C66.2452 66.6028 65.5293 67.2548 65.494 68.0149C65.4728 68.471 65.6107 68.7822 65.9006 69.1005C66.1905 69.4188 66.56 69.6647 66.9436 69.6065L71.2797 69.734C71.3521 69.8136 71.4246 69.8932 71.4246 69.8932C72.3668 70.9278 73.887 70.9992 74.9211 70.0574C75.0006 69.985 75.0802 69.9125 75.1597 69.8401L102.096 70.4959C103.087 70.4663 103.803 69.8143 103.766 68.9746Z" fill="#DAE1ED"/>
<path d="M103.698 67.1433C103.66 66.3036 103.008 65.5874 102.248 65.5517L75.2326 64.9683C75.1602 64.8888 75.1602 64.8888 75.0877 64.8092C74.1455 63.7746 72.6253 63.7032 71.5912 64.6449C71.5117 64.7174 71.4321 64.7898 71.3526 64.8623L67.0165 64.7348C66.1768 64.7715 65.461 65.4235 65.4256 66.1836C65.4044 66.6397 65.5423 66.9509 65.8322 67.2692C66.1222 67.5875 66.4916 67.8334 66.8752 67.7752L71.2113 67.9027C71.2838 67.9823 71.3563 68.0619 71.3563 68.0619C72.2985 69.0965 73.8187 69.1679 74.8527 68.2261C74.9323 68.1537 75.0118 68.0812 75.0913 68.0088L102.027 68.6646C103.019 68.635 103.662 67.9034 103.698 67.1433Z" fill="url(#paint1_linear_53_10042)"/>
<path d="M82.4808 4.93667V11.1417C82.4808 13.5548 80.5264 15.3933 78.2271 15.3933H67.6502C65.2359 15.3933 63.3965 13.4399 63.3965 11.1417V4.93667C63.3965 2.52359 65.3509 0.685059 67.6502 0.685059H78.2271C80.6414 0.685059 82.4808 2.6385 82.4808 4.93667Z" fill="url(#paint2_linear_53_10042)"/>
<path opacity="0.1" d="M82.4808 4.93667V11.1417C82.4808 13.5548 80.5264 15.3933 78.2271 15.3933H67.6502C65.2359 15.3933 63.3965 13.4399 63.3965 11.1417V9.99263C64.0863 12.9802 66.7305 12.9802 66.7305 12.9802H77.6523C79.1468 12.9802 80.4114 11.7163 80.4114 10.2224V5.74102C80.4114 2.6385 79.8366 1.48942 78.2271 0.685059C80.6414 0.685059 82.4808 2.6385 82.4808 4.93667Z" fill="#495A7C"/>
<path d="M65.0065 11.8311C64.6616 11.8311 64.4316 11.6013 64.4316 11.2566V4.13228C64.4316 3.78756 64.6616 3.55774 65.0065 3.55774C65.3514 3.55774 65.5813 3.78756 65.5813 4.13228V11.2566C65.4663 11.6013 65.2364 11.8311 65.0065 11.8311Z" fill="#AEB8C9"/>
<path d="M67.651 11.8311C67.3061 11.8311 67.0762 11.6013 67.0762 11.2566V4.13228C67.0762 3.78756 67.3061 3.55774 67.651 3.55774C67.9959 3.55774 68.2258 3.78756 68.2258 4.13228V11.2566C68.2258 11.6013 67.9959 11.8311 67.651 11.8311Z" fill="#AEB8C9"/>
<path d="M70.4108 11.8311C70.0659 11.8311 69.8359 11.6013 69.8359 11.2566V4.13228C69.8359 3.78756 70.0659 3.55774 70.4108 3.55774C70.7557 3.55774 70.9856 3.78756 70.9856 4.13228V11.2566C70.8706 11.6013 70.6407 11.8311 70.4108 11.8311Z" fill="#AEB8C9"/>
<path d="M73.0533 11.8311C72.7084 11.8311 72.4785 11.6013 72.4785 11.2566V4.13228C72.4785 3.78756 72.7084 3.55774 73.0533 3.55774C73.3982 3.55774 73.6282 3.78756 73.6282 4.13228V11.2566C73.6282 11.6013 73.3982 11.8311 73.0533 11.8311Z" fill="#AEB8C9"/>
<path d="M75.8131 11.8311C75.4682 11.8311 75.2383 11.6013 75.2383 11.2566V4.13228C75.2383 3.78756 75.4682 3.55774 75.8131 3.55774C76.158 3.55774 76.3879 3.78756 76.3879 4.13228V11.2566C76.273 11.6013 76.043 11.8311 75.8131 11.8311Z" fill="#AEB8C9"/>
<path d="M78.4576 11.8311C78.1127 11.8311 77.8828 11.6013 77.8828 11.2566V4.13228C77.8828 3.78756 78.1127 3.55774 78.4576 3.55774C78.8025 3.55774 79.0325 3.78756 79.0325 4.13228V11.2566C79.0325 11.6013 78.6876 11.8311 78.4576 11.8311Z" fill="#AEB8C9"/>
<path opacity="0.7" d="M81.1022 11.8311C80.7573 11.8311 80.5273 11.6013 80.5273 11.2566V4.13228C80.5273 3.78756 80.7573 3.55774 81.1022 3.55774C81.4471 3.55774 81.677 3.78756 81.677 4.13228V11.2566C81.677 11.6013 81.4471 11.8311 81.1022 11.8311Z" fill="#AEB8C9"/>
<path d="M41.3244 27.3437L35.5762 33.0892C34.3115 34.3532 32.2421 34.3532 30.8626 33.0892L27.5285 29.7568C26.2639 28.4928 26.2639 26.4245 27.5285 25.0456L33.2768 19.3002C34.5415 18.0362 36.6108 18.0362 37.9904 19.3002L41.3244 22.6325C42.5891 24.0114 42.5891 26.0798 41.3244 27.3437Z" fill="url(#paint3_linear_53_10042)"/>
<path d="M105.474 27.3437L111.222 33.0892C112.487 34.3532 114.556 34.3532 115.936 33.0892L119.27 29.7568C120.534 28.4928 120.534 26.4245 119.27 25.0456L113.521 19.3002C112.257 18.0362 110.187 18.0362 108.808 19.3002L105.474 22.6325C104.209 24.0114 104.209 26.0798 105.474 27.3437Z" fill="url(#paint4_linear_53_10042)"/>
<path d="M72.9404 66.7656C73.1005 66.9414 73.3728 66.9541 73.5486 66.794C73.7244 66.6339 73.7371 66.3616 73.577 66.1858C73.4169 66.01 73.1446 65.9972 72.9688 66.1573C72.793 66.3175 72.7803 66.5898 72.9404 66.7656Z" fill="white"/>
<path d="M59.9951 61.6639C61.9126 61.6639 63.5352 60.0414 63.5352 58.1239C63.5352 56.2064 61.9126 54.5839 59.9951 54.5839C58.0776 54.5839 56.4551 56.2064 56.4551 58.1239C56.4551 60.0414 58.0776 61.6639 59.9951 61.6639Z" fill="#989FB0"/>
<path d="M87.1357 61.6639C89.0533 61.6639 90.6758 60.0414 90.6758 58.1239C90.6758 56.2064 89.0533 54.5839 87.1357 54.5839C85.2182 54.5839 83.5957 56.2064 83.5957 58.1239C83.5957 60.1889 85.2182 61.6639 87.1357 61.6639Z" fill="#989FB0"/>
<path d="M59.8575 46.4121L52.0703 50.6167L53.1215 52.5635L60.9087 48.3589L59.8575 46.4121Z" fill="#989FB0"/>
<path d="M86.6545 46.356L85.6035 48.303L93.3916 52.5067L94.4426 50.5597L86.6545 46.356Z" fill="#989FB0"/>
<rect x="67.9551" y="78.1726" width="10.6056" height="2.35679" fill="#989FB0"/>
<defs>
<filter id="filter0_d_53_10042" x="0.108444" y="6.33779" width="147.041" height="146.994" filterUnits="userSpaceOnUse" color-interpolation-filters="sRGB">
<feFlood flood-opacity="0" result="BackgroundImageFix"/>
<feColorMatrix in="SourceAlpha" type="matrix" values="0 0 0 0 0 0 0 0 0 0 0 0 0 0 0 0 0 0 127 0" result="hardAlpha"/>
<feOffset dy="12.9624"/>
<feGaussianBlur stdDeviation="12.9624"/>
<feColorMatrix type="matrix" values="0 0 0 0 0.397708 0 0 0 0 0.47749 0 0 0 0 0.575 0 0 0 0.27 0"/>
<feBlend mode="normal" in2="BackgroundImageFix" result="effect1_dropShadow_53_10042"/>
<feBlend mode="normal" in="SourceGraphic" in2="effect1_dropShadow_53_10042" result="shape"/>
</filter>
<linearGradient id="paint0_linear_53_10042" x1="73.598" y1="17.0994" x2="73.598" y2="115.47" gradientUnits="userSpaceOnUse">
<stop stop-color="#FDFEFF"/>
<stop offset="0.9964" stop-color="#ECF0F5"/>
</linearGradient>
<linearGradient id="paint1_linear_53_10042" x1="94.3649" y1="57.7662" x2="82.5448" y2="68.5311" gradientUnits="userSpaceOnUse">
<stop stop-color="#B0BACC"/>
<stop offset="1" stop-color="#969EAE"/>
</linearGradient>
<linearGradient id="paint2_linear_53_10042" x1="72.9402" y1="1.19601" x2="72.9402" y2="9.4516" gradientUnits="userSpaceOnUse">
<stop stop-color="#B0BACC"/>
<stop offset="1" stop-color="#969EAE"/>
</linearGradient>
<linearGradient id="paint3_linear_53_10042" x1="34.4277" y1="18.8971" x2="34.4277" y2="27.7009" gradientUnits="userSpaceOnUse">
<stop stop-color="#B0BACC"/>
<stop offset="1" stop-color="#969EAE"/>
</linearGradient>
<linearGradient id="paint4_linear_53_10042" x1="112.373" y1="18.8971" x2="112.373" y2="27.7009" gradientUnits="userSpaceOnUse">
<stop stop-color="#B0BACC"/>
<stop offset="1" stop-color="#969EAE"/>
</linearGradient>
</defs>
</svg>
