<svg width="173" height="121" viewBox="0 0 173 121" fill="none" xmlns="http://www.w3.org/2000/svg">
<path d="M122.348 24.654C122.348 37.2023 112.369 47.5787 99.9558 48.3027C99.469 48.3027 98.9822 48.3027 98.4954 48.3027C94.3577 48.3027 90.2199 47.0961 86.8124 45.1656C79.5105 41.0633 74.6426 33.3413 74.6426 24.4127C74.6426 18.3799 76.8331 12.8297 80.7275 8.72736C85.1086 3.9011 91.4369 0.764038 98.4954 0.764038C107.744 0.764038 115.777 6.07292 119.671 13.7949C121.375 17.1733 122.348 20.793 122.348 24.654Z" fill="url(#paint0_linear_776_35525)"/>
<path opacity="0.1" d="M122.139 24.654C122.139 37.2023 112.16 47.5787 99.7468 48.3027C95.1223 47.5787 90.7411 46.3722 86.6034 45.4069C79.3015 41.3046 74.4336 33.5826 74.4336 24.654C74.4336 18.6212 76.6242 13.071 80.5185 8.96871C88.5506 8.7274 97.7996 9.45133 107.292 11.1405C111.673 11.8645 115.811 12.8297 119.705 13.795C121.166 17.1733 122.139 20.793 122.139 24.654Z" fill="black"/>
<path d="M151.241 40.6246C153.078 30.3904 130.428 17.835 100.652 12.5814C70.875 7.32775 45.2471 11.3653 43.4101 21.5995C41.5732 31.8337 64.2227 44.389 93.9993 49.6427C123.776 54.8963 149.404 50.8588 151.241 40.6246Z" fill="url(#paint1_linear_776_35525)"/>
<path d="M93.0612 18.425C93.1966 16.6977 90.4817 15.0796 86.9971 14.811C83.5126 14.5424 80.578 15.7249 80.4425 17.4523C80.3071 19.1797 83.022 20.7977 86.5066 21.0663C89.9911 21.3349 92.9257 20.1524 93.0612 18.425Z" fill="white"/>
<path d="M62.4357 22.8616C65.786 21.8754 68.0988 19.7296 67.6015 18.0688C67.1042 16.4079 63.985 15.861 60.6347 16.8472C57.2843 17.8334 54.9715 19.9792 55.4689 21.64C55.9662 23.3008 59.0854 23.8477 62.4357 22.8616Z" fill="white"/>
<path d="M117.677 24.774C117.983 23.0683 115.442 21.1934 112.001 20.5863C108.56 19.9792 105.523 20.8698 105.216 22.5755C104.91 24.2812 107.451 26.1561 110.892 26.7632C114.333 27.3703 117.371 26.4797 117.677 24.774Z" fill="white"/>
<path d="M136.154 37.3916C136.955 35.8517 135.086 33.316 131.98 31.7279C128.874 30.1399 125.706 30.1008 124.905 31.6407C124.104 33.1806 125.973 35.7163 129.08 37.3044C132.186 38.8924 135.354 38.9315 136.154 37.3916Z" fill="white"/>
<path d="M94.2904 33.2961L71.4111 33.0548L38.8281 93.6591L130.281 103.277L120.09 41.5008L94.2904 33.2961Z" fill="url(#paint2_linear_776_35525)"/>
<path opacity="0.5" d="M142.236 119.401H25.1621C28.3263 116.566 32.9508 113.73 38.3055 111.603C41.2263 110.54 44.6338 109.122 48.0414 108.413C58.264 105.577 70.6772 103.805 83.8206 103.805C99.6413 103.805 114.245 106.286 125.441 110.185C129.336 111.603 132.743 113.021 135.664 114.793C138.341 116.211 140.532 117.629 142.236 119.401Z" fill="url(#paint3_linear_776_35525)"/>
<path opacity="0.3" d="M49.6619 110.128C49.8153 111.567 47.3063 113.291 44.402 113.6C41.4977 113.909 38.9496 112.967 38.5542 111.553C41.3819 110.524 44.668 109.203 48.0053 108.363C49.0245 108.739 49.5853 109.408 49.6619 110.128Z" fill="url(#paint4_linear_776_35525)"/>
<path opacity="0.3" d="M70.1894 109.113C74.0876 109.113 77.2478 108.357 77.2478 107.424C77.2478 106.491 74.0876 105.735 70.1894 105.735C66.2911 105.735 63.1309 106.491 63.1309 107.424C63.1309 108.357 66.2911 109.113 70.1894 109.113Z" fill="url(#paint5_linear_776_35525)"/>
<path opacity="0.3" d="M108.237 108.975C108.317 107.778 105.228 106.601 101.339 106.345C97.4488 106.089 94.2307 106.852 94.1507 108.049C94.0707 109.246 97.1591 110.424 101.049 110.679C104.939 110.935 108.157 110.172 108.237 108.975Z" fill="url(#paint6_linear_776_35525)"/>
<path opacity="0.3" d="M135.034 114.413C134.067 114.301 132.906 114.338 131.483 113.931C127.642 113.245 124.637 111.684 124.775 110.486C124.802 110.246 124.802 110.246 125.072 110.034C128.83 111.439 132.246 112.798 135.034 114.413Z" fill="url(#paint7_linear_776_35525)"/>
<path d="M119.944 42.1241C120.768 37.5319 110.494 31.8784 96.995 29.4967C83.4962 27.1151 71.8852 28.9072 71.0609 33.4994C70.2366 38.0917 80.5112 43.7452 94.01 46.1268C107.509 48.5085 119.12 46.7164 119.944 42.1241Z" fill="url(#paint8_linear_776_35525)"/>
<path d="M32.5418 64.3639C32.5418 64.3639 24.1342 66.4986 26.682 68.2063C29.2297 69.8286 35.2595 72.6464 40.9495 70.7679C46.6395 68.8894 40.9495 66.2424 41.0344 66.2424C41.1193 66.2424 32.5418 64.3639 32.5418 64.3639Z" fill="#CED7E2"/>
<path d="M22.2656 63.6808C25.3229 64.62 34.7497 63.0831 40.7794 59.1553C45.5353 65.047 47.3187 66.5839 49.0172 66.7547C46.3845 69.4017 37.6372 73.671 32.7115 68.1209C26.9365 71.7925 22.2656 63.6808 22.2656 63.6808Z" fill="#E9EEF8"/>
<path d="M123.25 71.3668C126.477 71.5376 135.225 67.6098 139.98 62.3158C146.095 66.8413 148.133 67.8659 149.917 67.6098C147.963 70.8545 142.019 77.9416 133.611 78.4539C127.496 74.8677 123.25 71.3668 123.25 71.3668Z" fill="#E9EEF8"/>
<path d="M95.2813 71.4724C94.6428 68.3044 88.6599 60.8111 82.3482 57.5239C85.2079 50.4747 85.6925 48.2455 85.0002 46.5821C88.6292 47.6656 96.9737 51.6576 99.5642 59.6727C97.6141 66.4879 95.2813 71.4724 95.2813 71.4724Z" fill="white"/>
<path d="M171.152 119.401H163.761H10.5479H1" stroke="#D5DAE8" stroke-width="2" stroke-miterlimit="10" stroke-linecap="round" stroke-linejoin="round"/>
<defs>
<linearGradient id="paint0_linear_776_35525" x1="98.4992" y1="2.41547" x2="98.4992" y2="29.0984" gradientUnits="userSpaceOnUse">
<stop stop-color="#B0BACC"/>
<stop offset="1" stop-color="#969EAE"/>
</linearGradient>
<linearGradient id="paint1_linear_776_35525" x1="47.1566" y1="22.2575" x2="107.649" y2="33.1155" gradientUnits="userSpaceOnUse">
<stop stop-color="#E3E7EE"/>
<stop offset="1" stop-color="#D1D6DF"/>
</linearGradient>
<linearGradient id="paint2_linear_776_35525" x1="84.5605" y1="35.4942" x2="84.5605" y2="74.9091" gradientUnits="userSpaceOnUse">
<stop stop-color="#BDC4D1" stop-opacity="0.53"/>
<stop offset="1" stop-color="#5D7CB8" stop-opacity="0"/>
</linearGradient>
<linearGradient id="paint3_linear_776_35525" x1="83.6989" y1="103.805" x2="83.6989" y2="119.401" gradientUnits="userSpaceOnUse">
<stop stop-color="#B6BFD7"/>
<stop offset="1" stop-color="#838DA7" stop-opacity="0"/>
</linearGradient>
<linearGradient id="paint4_linear_776_35525" x1="43.9095" y1="108.967" x2="44.1964" y2="111.661" gradientUnits="userSpaceOnUse">
<stop stop-color="#B0BACC"/>
<stop offset="1" stop-color="#969EAE"/>
</linearGradient>
<linearGradient id="paint5_linear_776_35525" x1="70.1905" y1="105.852" x2="70.1905" y2="107.749" gradientUnits="userSpaceOnUse">
<stop stop-color="#B0BACC"/>
<stop offset="1" stop-color="#969EAE"/>
</linearGradient>
<linearGradient id="paint6_linear_776_35525" x1="94.6401" y1="108.081" x2="102.546" y2="108.61" gradientUnits="userSpaceOnUse">
<stop stop-color="#B0BACC"/>
<stop offset="1" stop-color="#969EAE"/>
</linearGradient>
<linearGradient id="paint7_linear_776_35525" x1="130.137" y1="110.732" x2="129.929" y2="112.541" gradientUnits="userSpaceOnUse">
<stop stop-color="#B0BACC"/>
<stop offset="1" stop-color="#969EAE"/>
</linearGradient>
<linearGradient id="paint8_linear_776_35525" x1="95.5025" y1="44.2292" x2="99.105" y2="31.7945" gradientUnits="userSpaceOnUse">
<stop stop-color="#B0BACC"/>
<stop offset="1" stop-color="#969EAE"/>
</linearGradient>
</defs>
</svg>
