<svg width="147" height="128" viewBox="0 0 147 128" fill="none" xmlns="http://www.w3.org/2000/svg">
<path d="M133.911 70.1214C133.911 91.3187 122.147 110.187 105.609 119.621C105.609 119.621 105.492 119.737 105.376 119.737C103.279 121.018 100.601 122.183 99.4359 122.765H99.3194C98.3877 123.115 92.7972 125.444 91.8654 125.444C91.749 125.444 91.6325 125.444 91.6325 125.561C91.516 125.561 91.3996 125.561 91.2831 125.677C88.8372 126.376 85.3432 126.958 84.6444 127.075C84.6444 127.424 73.9292 128.472 64.8446 126.492C63.6799 126.492 56.2259 124.512 49.7037 121.251C31.3016 111.701 18.6064 92.3669 18.6064 70.1214C18.6064 38.3253 44.4626 12.5857 76.2586 12.5857C108.171 12.5857 133.911 38.3253 133.911 70.1214Z" fill="#F6FAFF"/>
<path d="M93.7298 93.6482V124.978C93.6134 124.978 92.0993 125.561 91.9828 125.561C91.8663 125.561 91.7499 125.561 91.7499 125.677C91.6334 125.677 91.5169 125.677 91.4005 125.794C88.9546 126.492 85.4605 127.075 84.7617 127.191V93.6482H93.7298Z" fill="#4988FD"/>
<path d="M93.7298 93.6482V124.978C93.6134 124.978 92.0993 125.561 91.9828 125.561C91.8663 125.561 91.7499 125.561 91.7499 125.677C91.6334 125.677 91.5169 125.677 91.4005 125.794C88.9546 126.492 85.4605 127.075 84.7617 127.191V93.6482H93.7298Z" fill="white"/>
<path d="M101.882 93.6482V121.717C101.3 122.067 100.251 122.416 99.4361 122.882H99.3196C97.8055 123.581 96.0585 124.28 93.0303 125.211V93.7647H101.882V93.6482Z" fill="#2767F4"/>
<path d="M101.882 93.6482V121.717C101.3 122.067 100.251 122.416 99.4361 122.882H99.3196C97.8055 123.581 96.0585 124.28 93.0303 125.211V93.7647H101.882V93.6482Z" fill="#D5DAE8"/>
<path opacity="0.1" d="M101.882 105.761V119.737C100.717 120.319 99.7855 120.785 99.7855 120.785H99.669C97.689 121.834 94.6608 122.765 93.3797 123.115C93.2632 123.115 93.1467 123.231 93.0303 123.231V120.203C94.4279 116.01 96.7573 111.701 99.9019 108.09C100.484 107.275 101.183 106.46 101.882 105.761Z" fill="#062C78"/>
<path opacity="0.1" d="M101.883 93.6482H84.7617V103.548H101.883V93.6482Z" fill="#062C78"/>
<path d="M138.337 58.4745V94.114H110.501V94.2304H54.7119V30.1725H107.705C108.404 30.056 109.103 30.056 109.918 30.056C110.85 30.056 111.665 30.056 112.597 30.1725C113.762 30.289 114.81 30.4054 115.858 30.6384C121.332 31.8031 126.224 34.5983 129.951 38.3253C135.192 43.5664 138.337 50.671 138.337 58.4745Z" fill="#2F42FA"/>
<path d="M127.622 68.2579C131.116 68.2579 134.027 65.4626 134.027 61.8521C134.027 58.2415 131.116 55.4463 127.622 55.4463C124.128 55.4463 121.216 58.2415 121.216 61.8521C121.216 65.4626 124.011 68.2579 127.622 68.2579Z" fill="#737C90"/>
<path d="M128.67 67.4427C132.281 67.4427 135.309 64.6474 135.309 61.0369C135.309 57.4264 132.397 54.6311 128.67 54.6311C125.059 54.6311 122.031 57.4264 122.031 61.0369C122.031 64.6474 124.943 67.4427 128.67 67.4427Z" fill="#D5DAE8"/>
<path d="M129.019 67.4427C132.513 67.4427 135.425 64.6474 135.425 61.0369C135.425 57.4264 132.513 54.6311 129.019 54.6311C125.525 54.6311 122.613 57.4264 122.613 61.0369C122.613 64.6474 125.409 67.4427 129.019 67.4427Z" fill="#F5F7FB"/>
<path d="M129.019 63.4826C130.417 63.4826 131.465 62.4344 131.465 61.0368C131.465 59.6392 130.417 58.5909 129.019 58.5909C127.621 58.5909 126.573 59.6392 126.573 61.0368C126.573 62.4344 127.621 63.4826 129.019 63.4826Z" fill="#CED7E2"/>
<path d="M82.4316 55.6793V94.2305H25.5947V55.6793C25.5947 43.5665 34.2134 33.3173 45.5109 30.755C47.3744 30.2891 49.2379 30.1726 51.2179 30.1726H57.0414C69.8529 30.1726 80.3351 39.4901 82.3151 51.7194C82.3151 52.8841 82.4316 54.2817 82.4316 55.6793Z" fill="#232D8F"/>
<path opacity="0.7" d="M82.4315 61.3864L82.0821 52.0689C80.1021 39.8396 69.5035 30.5221 56.8083 30.5221H50.9849C49.0049 30.5221 47.1414 30.755 45.2779 31.1044L44.5791 31.6868L58.9048 90.7366L82.1986 92.0177L82.4315 61.3864Z" fill="#303DC2"/>
<path d="M82.3151 51.7194C80.3351 39.4901 69.7365 30.1726 57.0414 30.1726H51.2179C49.2379 30.1726 47.3744 30.2891 45.5109 30.755C34.097 33.3173 25.5947 43.4501 25.5947 55.6793V94.2305H82.4316V55.6793C82.4316 54.2817 82.3151 52.8841 82.3151 51.7194ZM80.1022 91.9012H27.9241V55.6793C27.9241 44.9642 35.4946 35.4137 46.0933 33.0843C47.6074 32.7349 49.1215 32.6185 51.2179 32.6185H57.0414C68.4553 32.6185 78.1222 40.7713 79.9857 52.0688C79.9857 52.5346 79.9857 53.117 79.9857 53.6993C79.9857 54.3982 79.9857 55.097 79.9857 55.7958V91.9012H80.1022Z" fill="#C3CAD6"/>
<path d="M69.1548 116.01C67.5243 118.456 65.5443 122.416 64.3796 125.677C64.2631 125.91 64.1467 126.26 64.1467 126.492C63.3314 126.376 62.5161 126.143 61.7008 125.91C61.002 124.28 60.5361 122.533 60.5361 122.533C61.002 121.95 61.3514 121.484 61.8173 121.018C64.0302 118.34 66.3596 116.476 69.1548 116.01Z" fill="#C1C8D7"/>
<path d="M64.8447 126.609C64.6118 126.609 64.3788 126.492 64.1459 126.492C63.3306 126.376 62.5153 126.143 61.7001 125.91C61.1177 125.794 60.6518 125.561 60.0695 125.444C59.8366 125.328 59.6036 125.328 59.3707 125.211C59.1377 125.095 58.9048 125.095 58.5554 124.978C55.5272 124.047 52.6155 122.765 49.8202 121.368C46.9085 116.476 45.2779 110.536 42.4827 102.267C42.4827 102.15 42.4827 102.15 42.3662 102.034C42.3662 102.034 42.5991 102.034 43.1815 102.267C43.5309 102.5 44.1132 102.733 44.8121 103.199C46.2097 104.13 48.4226 105.761 51.6837 108.44C55.7601 111.817 59.2542 116.825 61.7001 120.902C62.7483 122.765 63.68 124.396 64.3788 125.677C64.6118 125.91 64.7283 126.259 64.8447 126.609Z" fill="#D5DAE8"/>
<path d="M60.0702 125.328C59.8373 125.211 59.6043 125.211 59.3714 125.095C59.1385 124.978 58.9055 124.978 58.5561 124.862C53.1985 114.147 47.1422 107.275 43.6481 103.315C43.2987 102.849 42.9493 102.5 42.5999 102.15C42.5999 102.034 42.5999 102.034 42.4834 101.917C42.4834 101.917 42.7163 101.917 43.2987 102.15C43.6481 102.383 44.2304 102.616 44.9292 103.082C48.5398 107.275 54.7126 114.38 60.0702 125.328Z" fill="#EAEEF9"/>
<path d="M114.461 100.287C114.461 100.287 114.345 100.52 114.112 100.986C112.714 103.548 108.055 112.05 105.842 119.504C105.726 119.504 105.726 119.621 105.61 119.621C105.61 119.621 105.493 119.737 105.377 119.737C103.28 121.018 100.601 122.183 99.4367 122.765H99.3202C95.8261 124.396 92.0991 125.444 91.8662 125.444C93.6132 119.737 96.1756 114.613 99.7861 110.303C100.485 109.488 101.184 108.673 101.883 107.974C101.999 107.857 102.115 107.741 102.232 107.624C105.26 104.596 108.405 102.616 111.433 101.335C111.782 101.219 112.132 100.986 112.481 100.869C112.831 100.636 113.413 100.52 113.995 100.287C114.228 100.403 114.345 100.287 114.461 100.287Z" fill="#D5DAE8"/>
<path d="M114.345 100.054C114.345 100.054 114.228 100.17 114.112 100.52C114.112 100.636 113.995 100.636 113.995 100.753C107.939 106.11 103.164 115.078 100.135 122.532C99.9025 122.649 99.6696 122.765 99.4366 122.882H99.3202C99.0872 122.998 98.7378 123.115 98.5049 123.231C98.6214 122.998 98.7378 122.882 98.7378 122.882C100.252 119.155 104.328 108.556 111.433 101.452C111.666 101.219 111.899 100.986 112.132 100.753C112.947 100.52 113.646 100.287 114.345 100.054Z" fill="#EAEEF9"/>
<path d="M82.7812 90.1542V94.2306H5.09644C3.93175 94.2306 3 93.2988 3 92.2506C3 91.0859 3.93175 90.1542 5.09644 90.1542H82.7812Z" fill="#919AAC"/>
<path d="M130.999 29.9397L130.999 60.571C130.999 61.5028 130.3 62.2016 129.368 62.2016C128.437 62.2016 127.738 61.5028 127.738 60.571L127.738 29.9397L130.999 29.9397Z" fill="#CED7E2"/>
<path d="M146.606 28.8915C147.072 29.2409 146.839 30.0562 146.14 30.0562L131.116 30.0562L127.622 30.0562L127.622 17.4775L146.14 17.4775C146.723 17.4775 147.072 18.1764 146.606 18.6422L141.715 22.7186C141.016 23.301 141.016 24.3492 141.715 24.9316L146.606 28.8915Z" fill="#F9822C"/>
<path d="M125.316 113.53C127.58 113.53 129.416 111.694 129.416 109.43C129.416 107.165 127.58 105.33 125.316 105.33C123.051 105.33 121.216 107.165 121.216 109.43C121.216 111.694 123.051 113.53 125.316 113.53Z" fill="#EAEEF9"/>
<path d="M12.158 112.228C15.0299 112.228 17.358 109.899 17.358 107.028C17.358 104.156 15.0299 101.828 12.158 101.828C9.28613 101.828 6.95801 104.156 6.95801 107.028C6.95801 109.899 9.28613 112.228 12.158 112.228Z" fill="#EAEEF9"/>
<g filter="url(#filter0_d_53_9027)">
<rect x="22.3389" y="54.0172" width="52.4811" height="36.137" rx="4" fill="#DDFFF3"/>
</g>
<path d="M74.0853 55.3762L52.7549 71.1718C50.2745 73.0086 46.8851 73.0086 44.4047 71.1718L23.0742 55.3762C23.7159 54.5494 24.7194 54.0172 25.8471 54.0172H71.3125C72.4402 54.0172 73.4436 54.5494 74.0853 55.3762Z" fill="#0EF7A3"/>
<path d="M126.355 11.9148L122.031 0.5" stroke="#A6B0C1" stroke-width="2.5"/>
<path d="M123.585 16.1804L114.851 13.1538" stroke="#A6B0C1" stroke-width="2.5"/>
<path d="M131.465 10.1852L132.416 1.2782" stroke="#A6B0C1" stroke-width="2.5"/>
<defs>
<filter id="filter0_d_53_9027" x="0.338867" y="43.0172" width="96.4814" height="80.137" filterUnits="userSpaceOnUse" color-interpolation-filters="sRGB">
<feFlood flood-opacity="0" result="BackgroundImageFix"/>
<feColorMatrix in="SourceAlpha" type="matrix" values="0 0 0 0 0 0 0 0 0 0 0 0 0 0 0 0 0 0 127 0" result="hardAlpha"/>
<feOffset dy="11"/>
<feGaussianBlur stdDeviation="11"/>
<feColorMatrix type="matrix" values="0 0 0 0 0.397708 0 0 0 0 0.47749 0 0 0 0 0.575 0 0 0 0.27 0"/>
<feBlend mode="normal" in2="BackgroundImageFix" result="effect1_dropShadow_53_9027"/>
<feBlend mode="normal" in="SourceGraphic" in2="effect1_dropShadow_53_9027" result="shape"/>
</filter>
</defs>
</svg>
